<svg width="500" height="167" viewBox="0 0 500 167" fill="none" xmlns="http://www.w3.org/2000/svg">
<g clip-path="url(#clip0_27_354)">
<path d="M227.562 166.306V135.253H237.27C239.078 135.253 240.522 135.555 241.601 136.155C242.68 136.759 243.455 137.631 243.934 138.773C244.413 139.918 244.646 141.332 244.646 143.015C244.646 144.4 244.482 145.597 244.147 146.604C243.816 147.612 243.284 148.425 242.553 149.042C241.824 149.659 240.902 150.089 239.793 150.328V150.509C241.155 150.748 242.205 151.208 242.933 151.887C243.665 152.562 244.18 153.419 244.482 154.459C244.78 155.496 244.934 156.723 244.934 158.137C244.934 159.37 244.806 160.499 244.554 161.522C244.298 162.546 243.871 163.409 243.264 164.118C242.664 164.823 241.854 165.364 240.84 165.742C239.823 166.119 238.553 166.306 237.031 166.306L227.562 166.306ZM230.085 164.141H236.791C238.189 164.141 239.295 163.921 240.105 163.484C240.909 163.048 241.49 162.372 241.841 161.454C242.192 160.535 242.362 159.354 242.362 157.91C242.362 156.408 242.172 155.204 241.791 154.301C241.411 153.396 240.817 152.727 240.007 152.29C239.196 151.854 238.127 151.637 236.791 151.637H230.085L230.085 164.141ZM230.085 149.472H236.699C237.871 149.472 238.858 149.252 239.649 148.816C240.443 148.379 241.043 147.71 241.46 146.808C241.87 145.906 242.077 144.79 242.077 143.468C242.077 141.995 241.919 140.82 241.601 139.948C241.283 139.075 240.738 138.442 239.957 138.051C239.183 137.661 238.094 137.464 236.699 137.464H230.085V149.472ZM250.597 135.975V132.772H253.261V135.975H250.597ZM250.692 166.306V143.288H253.169V166.306H250.692ZM268.301 166.667C267.257 166.667 266.319 166.562 265.495 166.352C264.669 166.142 263.98 165.765 263.422 165.223C262.871 164.682 262.434 163.914 262.116 162.92H261.926L261.736 166.306H259.639V132.773H262.116V146.267H262.306C262.589 145.453 262.992 144.807 263.52 144.324C264.042 143.845 264.698 143.491 265.495 143.265C266.286 143.038 267.221 142.927 268.301 142.927C269.793 142.927 271.007 143.101 271.946 143.445C272.877 143.793 273.609 144.393 274.131 145.25C274.656 146.109 275.02 147.32 275.226 148.885C275.436 150.45 275.535 152.418 275.535 154.797C275.535 157.205 275.436 159.183 275.226 160.732C275.02 162.28 274.649 163.484 274.111 164.344C273.57 165.2 272.841 165.801 271.919 166.148C271.001 166.493 269.793 166.667 268.301 166.667ZM267.539 164.544C268.747 164.544 269.711 164.439 270.443 164.229C271.171 164.019 271.729 163.583 272.11 162.92C272.49 162.257 272.743 161.273 272.871 159.964C272.999 158.655 273.061 156.933 273.061 154.797C273.061 152.631 272.999 150.899 272.871 149.606C272.743 148.314 272.49 147.333 272.11 146.673C271.729 146.011 271.171 145.568 270.443 145.341C269.711 145.115 268.747 145.003 267.539 145.003C266.178 145.003 265.098 145.249 264.304 145.748C263.511 146.244 262.969 147.034 262.687 148.117C262.464 148.96 262.313 149.885 262.231 150.893C262.152 151.9 262.116 153.202 262.116 154.797C262.116 156.391 262.146 157.671 262.208 158.632C262.274 159.597 262.415 160.499 262.638 161.342C262.923 162.454 263.465 163.268 264.255 163.78C265.049 164.291 266.145 164.544 267.539 164.544ZM281.198 166.306V132.773H283.678V166.306H281.198ZM290.052 135.975V132.772H292.717V135.975H290.052ZM290.148 166.306V143.288H292.625V166.306H290.148ZM306.375 166.667C304.885 166.667 303.648 166.568 302.664 166.375C301.68 166.178 300.896 165.824 300.308 165.312C299.721 164.8 299.288 164.095 298.999 163.192C298.714 162.29 298.524 161.152 298.428 159.784C298.333 158.415 298.287 156.769 298.287 154.843C298.287 152.887 298.333 151.224 298.428 149.856C298.524 148.484 298.714 147.349 298.999 146.447C299.288 145.545 299.721 144.836 300.308 144.324C300.896 143.812 301.68 143.452 302.664 143.242C303.648 143.032 304.885 142.927 306.375 142.927C307.9 142.927 309.144 143.032 310.112 143.242C311.083 143.452 311.86 143.812 312.444 144.324C313.031 144.836 313.468 145.545 313.757 146.447C314.039 147.349 314.222 148.484 314.301 149.856C314.383 151.224 314.419 152.887 314.419 154.843C314.419 156.768 314.383 158.415 314.301 159.784C314.222 161.152 314.039 162.29 313.757 163.192C313.468 164.095 313.031 164.8 312.444 165.312C311.86 165.824 311.083 166.178 310.112 166.375C309.144 166.568 307.9 166.667 306.375 166.667ZM306.332 164.636C307.726 164.636 308.799 164.508 309.541 164.252C310.289 163.996 310.843 163.53 311.211 162.854C311.571 162.175 311.795 161.191 311.873 159.898C311.952 158.602 311.995 156.919 311.995 154.843C311.995 152.736 311.952 151.027 311.873 149.718C311.795 148.409 311.578 147.418 311.234 146.739C310.883 146.063 310.328 145.597 309.567 145.341C308.806 145.085 307.743 144.957 306.375 144.957C305.013 144.957 303.95 145.085 303.189 145.341C302.425 145.597 301.87 146.063 301.522 146.739C301.171 147.418 300.958 148.409 300.879 149.718C300.797 151.027 300.761 152.736 300.761 154.843C300.761 156.919 300.797 158.609 300.879 159.918C300.958 161.227 301.165 162.215 301.496 162.874C301.834 163.537 302.379 163.996 303.14 164.252C303.901 164.508 304.964 164.636 306.332 164.636ZM321.512 166.306V145.318H317.897V143.287H321.512V136.608H323.989V143.287H328.225V145.318H323.989V166.306H321.512ZM339.98 166.667C338.491 166.667 337.244 166.545 336.243 166.306C335.249 166.066 334.446 165.666 333.842 165.108C333.238 164.554 332.789 163.822 332.487 162.92C332.182 162.018 331.978 160.896 331.867 159.557C331.758 158.219 331.703 156.647 331.703 154.843C331.703 152.585 331.772 150.696 331.916 149.177C332.057 147.658 332.382 146.431 332.89 145.499C333.396 144.567 334.206 143.904 335.318 143.514C336.427 143.12 337.966 142.927 339.934 142.927C341.329 142.927 342.484 143.048 343.386 143.288C344.288 143.527 345.01 143.921 345.551 144.462C346.089 145.003 346.48 145.732 346.716 146.65C346.955 147.569 347.103 148.694 347.169 150.036C347.231 151.375 347.264 152.946 347.264 154.751V155.564H334.127C334.127 157.428 334.193 158.95 334.318 160.122C334.446 161.296 334.715 162.215 335.128 162.874C335.538 163.537 336.165 163.996 337.008 164.252C337.851 164.508 338.98 164.636 340.41 164.636C341.047 164.636 341.719 164.613 342.434 164.567C343.146 164.524 343.868 164.456 344.6 164.364C345.328 164.275 345.981 164.17 346.552 164.049V166.034C346.073 166.155 345.472 166.26 344.741 166.352C344.012 166.44 343.232 166.516 342.408 166.578C341.581 166.637 340.778 166.667 339.98 166.667ZM344.882 154.616V153.035C344.882 151.201 344.803 149.748 344.649 148.681C344.488 147.612 344.226 146.808 343.861 146.267C343.497 145.725 342.979 145.364 342.313 145.184C341.647 145.003 340.807 144.912 339.79 144.912C338.52 144.912 337.513 145.017 336.772 145.227C336.024 145.44 335.459 145.853 335.079 146.47C334.698 147.087 334.445 147.966 334.318 149.111C334.193 150.253 334.127 151.788 334.127 153.714H345.791L344.882 154.616ZM359.78 166.667C358.386 166.667 357.221 166.522 356.283 166.237C355.348 165.952 354.613 165.515 354.071 164.928C353.533 164.344 353.12 163.583 352.835 162.651C352.546 161.716 352.356 160.604 352.264 159.311C352.165 158.015 352.123 156.526 352.123 154.843C352.123 152.946 352.185 151.312 352.313 149.944C352.438 148.576 352.667 147.441 352.999 146.536C353.333 145.633 353.779 144.918 354.331 144.393C354.888 143.865 355.6 143.491 356.473 143.265C357.349 143.038 358.405 142.927 359.639 142.927C360.466 142.927 361.345 142.979 362.283 143.084C363.215 143.189 363.989 143.317 364.59 143.468V145.453C363.957 145.302 363.235 145.184 362.424 145.092C361.614 145.003 360.859 144.958 360.164 144.958C358.957 144.958 357.989 145.092 357.26 145.364C356.529 145.633 355.968 146.116 355.571 146.808C355.174 147.5 354.915 148.494 354.787 149.787C354.659 151.08 354.596 152.736 354.596 154.751C354.596 156.857 354.659 158.566 354.787 159.875C354.915 161.184 355.174 162.185 355.571 162.874C355.968 163.566 356.539 164.036 357.283 164.275C358.031 164.515 359.006 164.636 360.21 164.636C361.007 164.636 361.811 164.59 362.638 164.501C363.461 164.41 364.16 164.275 364.731 164.095V166.08C364.098 166.26 363.327 166.404 362.424 166.509C361.522 166.614 360.64 166.667 359.78 166.667ZM374.819 166.667C373.33 166.667 372.09 166.486 371.109 166.125C370.125 165.765 369.403 165.102 368.943 164.141C368.481 163.176 368.255 161.808 368.255 160.033C368.255 158.317 368.438 156.978 368.799 156.014C369.163 155.053 369.777 154.377 370.633 153.983C371.489 153.593 372.697 153.396 374.249 153.396C374.629 153.396 375.108 153.396 375.679 153.396C376.25 153.396 376.86 153.412 377.513 153.442C378.163 153.471 378.802 153.494 379.439 153.511C380.072 153.524 380.676 153.547 381.247 153.58V151.726C381.247 150.164 381.165 148.921 381.01 148.005C380.85 147.087 380.564 146.408 380.151 145.971C379.741 145.535 379.147 145.259 378.366 145.138C377.588 145.017 376.581 144.957 375.348 144.957C374.839 144.957 374.235 144.98 373.537 145.026C372.838 145.069 372.139 145.131 371.44 145.207C370.745 145.282 370.079 145.377 369.445 145.499V143.514C370.459 143.304 371.512 143.153 372.611 143.061C373.704 142.973 374.852 142.927 376.06 142.927C377.329 142.927 378.409 143.009 379.295 143.176C380.184 143.34 380.912 143.612 381.483 143.986C382.054 144.364 382.5 144.882 382.815 145.545C383.133 146.207 383.356 147.034 383.484 148.025C383.612 149.019 383.674 150.194 383.674 151.545V166.306H381.627L381.437 162.92H381.201C380.912 163.944 380.469 164.728 379.865 165.269C379.262 165.81 378.533 166.178 377.677 166.375C376.821 166.568 375.869 166.667 374.819 166.667ZM375.348 164.636C376.266 164.636 377.054 164.577 377.703 164.455C378.353 164.334 378.914 164.101 379.39 163.757C379.865 163.409 380.213 162.907 380.44 162.244C380.722 161.493 380.932 160.696 381.056 159.852C381.184 159.009 381.247 158.045 381.247 156.962V155.249H374.869C373.727 155.249 372.854 155.361 372.251 155.587C371.647 155.811 371.237 156.263 371.014 156.939C370.791 157.618 370.679 158.619 370.679 159.941C370.679 161.204 370.8 162.175 371.04 162.854C371.273 163.53 371.735 163.996 372.421 164.252C373.1 164.508 374.078 164.636 375.348 164.636ZM405.236 166.306L396.479 135.253H399.193L406.709 162.651H406.949L414.517 135.253H417.086L408.376 166.306H405.236ZM420.895 135.975V132.772H423.559V135.975H420.895ZM420.987 166.306V143.288H423.464V166.306H420.987ZM429.934 166.306V143.288H432.031L432.221 147.756H432.411C432.697 146.522 433.126 145.551 433.697 144.846C434.268 144.137 434.983 143.642 435.836 143.356C436.696 143.068 437.71 142.927 438.884 142.927V145.272C437.172 145.272 435.836 145.633 434.885 146.355C433.933 147.08 433.284 148.153 432.936 149.584C432.585 151.014 432.411 152.795 432.411 154.931V166.306L429.934 166.306ZM444.452 166.306V145.318H440.836V143.287H444.452V136.608H446.929V143.287H451.164V145.318H446.929V166.306H444.452ZM461.922 166.667C460.495 166.667 459.343 166.503 458.471 166.171C457.598 165.84 456.932 165.328 456.473 164.636C456.01 163.944 455.702 163.035 455.544 161.906C455.383 160.778 455.305 159.416 455.305 157.822V143.288H457.782V157.188C457.782 158.812 457.844 160.115 457.972 161.093C458.097 162.07 458.336 162.815 458.687 163.327C459.035 163.839 459.534 164.17 460.183 164.321C460.833 164.472 461.686 164.544 462.729 164.544C464.061 164.544 465.105 164.334 465.846 163.914C466.594 163.491 467.129 162.874 467.444 162.064C467.762 161.25 467.959 160.266 468.038 159.108C468.116 157.95 468.159 156.664 468.159 155.249V143.288H470.633V166.306H468.54L468.395 162.92H468.159C467.903 163.704 467.529 164.38 467.037 164.951C466.545 165.525 465.889 165.952 465.062 166.237C464.238 166.522 463.192 166.667 461.922 166.667ZM482.293 166.667C480.8 166.667 479.563 166.486 478.579 166.125C477.598 165.765 476.873 165.102 476.414 164.141C475.954 163.176 475.725 161.808 475.725 160.033C475.725 158.317 475.908 156.978 476.273 156.014C476.634 155.053 477.247 154.377 478.107 153.983C478.96 153.593 480.167 153.396 481.722 153.396C482.103 153.396 482.578 153.396 483.149 153.396C483.72 153.396 484.33 153.412 484.983 153.442C485.633 153.471 486.273 153.494 486.909 153.511C487.542 153.524 488.146 153.547 488.717 153.58V151.726C488.717 150.164 488.638 148.921 488.481 148.005C488.323 147.087 488.034 146.408 487.624 145.971C487.211 145.535 486.617 145.259 485.84 145.138C485.059 145.017 484.051 144.957 482.818 144.957C482.309 144.957 481.706 144.98 481.007 145.026C480.308 145.069 479.609 145.131 478.91 145.207C478.215 145.282 477.549 145.377 476.916 145.499V143.514C477.929 143.304 478.986 143.153 480.082 143.061C481.174 142.973 482.323 142.927 483.53 142.927C484.8 142.927 485.879 143.009 486.765 143.176C487.654 143.34 488.385 143.612 488.956 143.986C489.527 144.364 489.973 144.882 490.288 145.545C490.607 146.207 490.826 147.034 490.954 148.025C491.082 149.019 491.145 150.194 491.145 151.545V166.306H489.097L488.907 162.92H488.671C488.385 163.944 487.943 164.728 487.336 165.269C486.735 165.81 486.004 166.178 485.151 166.375C484.291 166.568 483.34 166.667 482.293 166.667ZM482.818 164.636C483.737 164.636 484.524 164.577 485.174 164.455C485.823 164.334 486.384 164.101 486.863 163.757C487.336 163.409 487.687 162.907 487.91 162.244C488.195 161.493 488.402 160.696 488.527 159.852C488.654 159.009 488.717 158.045 488.717 156.962V155.249H482.339C481.197 155.249 480.328 155.361 479.721 155.587C479.12 155.811 478.707 156.263 478.487 156.939C478.261 157.618 478.149 158.619 478.149 159.941C478.149 161.204 478.271 162.175 478.51 162.854C478.746 163.53 479.206 163.996 479.891 164.252C480.574 164.508 481.548 164.636 482.818 164.636ZM497.523 166.306V132.773H500V166.306H497.523Z" fill="#0D6239"/>
<path d="M319.417 89.4127V2.03418H345.531L368.3 59.6948H369.105L391.739 2.03418H409.15L374.645 89.4127H361.739L337.9 28.5794H337.227V89.4127H319.417Z" fill="#7C1034"/>
<path d="M262.841 125.827V38.4482H325.791V53.1792H281.861V74.3898H319.495V89.1208H281.861V111.096H325.791V125.827H262.841Z" fill="#96294D"/>
<path d="M226.342 87.3785V0H286.611V14.731H245.362V38.3562H281.657V53.0872H245.362V87.3785H226.342Z" fill="#7C1034"/>
<path d="M489.213 34.5571H490.462H497.785V121.936H479.436V61.7192V61.1024H478.767L454.927 121.936H454.712L489.213 34.5571Z" fill="#96294D"/>
<path d="M399.504 121.936V34.5571H425.623L448.389 92.2178H449.192L471.827 34.5571H489.238L454.737 121.936H441.828L417.989 61.1024H417.316V121.936H399.504Z" fill="#7C1034"/>
<path d="M409.15 2.03418H410.401H417.72V89.4127H399.373V29.1928V28.5794H398.704L374.863 89.4127H374.645L409.15 2.03418Z" fill="#96294D"/>
<path fill-rule="evenodd" clip-rule="evenodd" d="M179.738 106H18.1832V10.9907H179.738V106Z" fill="#FEFEFE"/>
<path fill-rule="evenodd" clip-rule="evenodd" d="M118.301 108.507C118.301 109.481 117.471 110.269 116.441 110.269H80.332C79.3051 110.269 78.4718 109.481 78.4718 108.507L15.4338 108.523H1.48045C0.663522 108.523 0.000793457 109.15 0.000793457 109.924V112.575C0.000793457 116.44 14.7777 116.857 18.8525 116.857H140.604L134.686 108.51L118.301 108.507Z" fill="#7C1034"/>
<path fill-rule="evenodd" clip-rule="evenodd" d="M195.293 108.523H181.343L134.686 108.51L140.605 116.857H177.921C181.999 116.857 196.773 116.44 196.773 112.575V109.924C196.773 109.15 196.11 108.523 195.293 108.523Z" fill="#96294D"/>
<path fill-rule="evenodd" clip-rule="evenodd" d="M23.6917 101.676V16.3483H69.3313L64.0525 8.91064H20.4765C17.6911 8.91064 15.4338 11.0498 15.4338 13.6908V107.532H133.99L129.836 101.676L23.6917 101.676Z" fill="#7C1034"/>
<path fill-rule="evenodd" clip-rule="evenodd" d="M98.3865 13.4677C97.8911 13.4677 97.4876 13.0871 97.4876 12.6147C97.4876 12.1455 97.8911 11.7617 98.3865 11.7617C98.8819 11.7617 99.2855 12.1455 99.2855 12.6147C99.2855 13.0871 98.8819 13.4677 98.3865 13.4677ZM181.342 13.6908C181.342 11.0497 179.082 8.91064 176.3 8.91064H64.0526L69.3314 16.3483H173.081V101.676H129.837L133.99 107.533H181.342V13.6908Z" fill="#96294D"/>
<path fill-rule="evenodd" clip-rule="evenodd" d="M97.8386 56.2924C105.276 41.7255 121.234 23.0412 121.395 22.8542L122.576 21.4795V83.5233L121.73 83.297C121.71 83.2904 119.614 82.7425 116.661 82.7425C111.123 82.7425 103.583 84.5863 99.1018 93.3658L97.8386 95.8429L97.8386 56.2924Z" fill="#D2D3D5"/>
<path fill-rule="evenodd" clip-rule="evenodd" d="M123.242 19.7047L120.877 22.4573C120.716 22.641 104.774 41.2565 97.3038 55.889L97.1726 56.1482V56.4369V93.0903V98.5956L99.7021 93.6415C104.033 85.154 111.316 83.3758 116.661 83.3758C119.509 83.3758 121.53 83.9007 121.549 83.904L123.239 84.3535L123.242 82.6901V82.4801V23.2544L123.242 19.7047ZM121.91 23.2545V82.4802V82.6902C121.91 82.6902 119.755 82.1128 116.661 82.1128C111.339 82.1128 103.239 83.8155 98.5046 93.0904V56.437C105.991 41.7684 121.91 23.2545 121.91 23.2545Z" fill="#FEFEFE"/>
<path fill-rule="evenodd" clip-rule="evenodd" d="M97.8386 56.2926C103.462 45.2722 127.268 28.7597 128.275 28.0675L129.426 27.2769L129.331 28.6187C129.292 29.1535 125.578 81.8438 125.545 82.4474L125.512 83.0478L124.879 83.0544C124.676 83.0544 104.472 83.202 99.1017 93.7171L97.8386 96.1941L97.8386 56.2926Z" fill="#BDBFC1"/>
<path fill-rule="evenodd" clip-rule="evenodd" d="M130.184 25.9775L127.884 27.5556C126.871 28.2512 103.003 44.7276 97.3038 55.889L97.1725 56.1481V56.4369V93.4414V98.9499L99.7021 93.9926C104.886 83.8351 124.682 83.6842 124.882 83.6842L126.211 83.6809V82.4571C126.306 80.9644 129.958 29.1895 129.994 28.6613L130.184 25.9775ZM128.665 28.5792C128.665 28.5792 124.879 82.2635 124.879 82.4211C124.879 82.4211 104.118 82.4407 98.5046 93.4414V56.4368C104.121 45.4362 128.665 28.5792 128.665 28.5792Z" fill="#FEFEFE"/>
<path fill-rule="evenodd" clip-rule="evenodd" d="M97.8386 56.2927C101.641 48.8452 133.77 33.96 135.135 33.3333L136.267 32.8149L136.083 33.996C136.008 34.4685 128.737 80.6824 128.514 82.1947V82.6835L127.967 82.7754C127.714 82.8181 102.655 87.1061 99.1017 94.068L97.8386 96.5451L97.8386 56.2927Z" fill="#A9ABAE"/>
<path fill-rule="evenodd" clip-rule="evenodd" d="M137.114 31.7257L134.843 32.7657C131.405 34.3405 101.139 48.3759 97.3038 55.8889L97.1725 56.1481V56.4368V93.7923V99.2976L99.7021 94.3435C102.53 88.8055 121.146 84.5634 128.081 83.3954L129.18 83.2117V82.2373C129.443 80.505 134.21 50.177 136.739 34.0878L137.114 31.7257ZM135.424 33.9041C135.424 33.9041 127.848 82.047 127.848 82.1522C127.848 82.1522 102.248 86.4566 98.5047 93.7926V56.437C102.248 49.1044 135.424 33.9041 135.424 33.9041Z" fill="#FEFEFE"/>
<path fill-rule="evenodd" clip-rule="evenodd" d="M97.8386 56.2924C99.7742 52.4965 137.658 40.0261 141.966 38.6284L143.127 38.2544L142.825 39.383C142.714 39.7964 131.972 80.0851 131.487 81.9583V82.3553L131.011 82.4898C119.348 85.7805 100.375 91.9288 99.1018 94.4189L97.8387 96.896L97.8386 56.2924Z" fill="#96989A"/>
<path fill-rule="evenodd" clip-rule="evenodd" d="M144.072 37.2803L141.749 38.0316C141.644 38.0644 131.155 41.4699 120.571 45.2789C98.7045 53.1431 97.7597 54.9968 97.3037 55.8892L97.1724 56.1483V56.4371V94.1437V99.6522L99.702 94.6949C99.8824 94.3832 101.513 92.5722 115.913 87.7953C123.6 85.2428 131.122 83.1168 131.198 83.0938L132.153 82.8281V82.0374C132.707 79.9081 139.725 53.5827 143.472 39.5375L144.072 37.2803ZM142.179 39.2258C142.179 39.2258 130.821 81.8307 130.821 81.8865C130.821 81.8865 100.375 90.4757 98.5045 94.1437V56.437C100.375 52.7723 142.179 39.2258 142.179 39.2258Z" fill="#FEFEFE"/>
<path fill-rule="evenodd" clip-rule="evenodd" d="M97.8386 55.9448L150.02 43.645L134.305 82.1062L97.8386 95.4133V55.9448Z" fill="#96294D"/>
<path fill-rule="evenodd" clip-rule="evenodd" d="M151.106 42.7394L148.616 43.3267L98.1832 55.2131L97.1727 55.4526V56.4369V94.4945V96.3318L98.9804 95.6723L134.269 82.795L134.817 82.5949L135.03 82.0732L150.178 45.0096L151.106 42.7394ZM148.938 44.5504L133.79 81.6173L98.5047 94.4945V56.4369L148.938 44.5504Z" fill="#FEFEFE"/>
<path fill-rule="evenodd" clip-rule="evenodd" d="M97.6745 93.3658C93.1929 84.5863 85.6502 82.7425 80.1155 82.7425C77.1594 82.7425 75.0663 83.2904 75.0466 83.2969L74.2001 83.5233V21.4795L75.3812 22.8542C75.542 23.0412 91.4343 41.5976 98.8721 56.1645L98.9377 95.8429L97.6745 93.3658Z" fill="#D2D3D5"/>
<path fill-rule="evenodd" clip-rule="evenodd" d="M73.5341 19.7046V23.2544V82.4801V82.6901V84.3601L75.227 83.904C75.2467 83.9007 77.2644 83.3758 80.1155 83.3758C85.46 83.3758 92.7434 85.1573 97.0742 93.6415L99.6037 98.5989V93.0904V56.437V56.1482L99.4725 55.8891C92.002 41.2565 76.0572 22.641 75.8997 22.4573L73.5341 19.7046ZM74.8661 23.2544C74.8661 23.2544 90.7847 41.7681 98.2717 56.4368V93.0902C93.5374 83.8153 85.437 82.1126 80.1155 82.1126C77.0217 82.1126 74.8662 82.69 74.8662 82.69V82.48L74.8661 23.2544Z" fill="#FEFEFE"/>
<path fill-rule="evenodd" clip-rule="evenodd" d="M97.6745 93.717C92.3005 83.1921 72.1004 83.0543 71.897 83.0543L71.231 83.051V82.4211C71.1982 81.8436 67.481 29.1534 67.4449 28.6187L67.3498 27.2769L68.5014 28.0675C69.5086 28.7598 93.2486 45.1443 98.872 56.1646L98.9376 96.194L97.6745 93.717Z" fill="#BDBFC1"/>
<path fill-rule="evenodd" clip-rule="evenodd" d="M66.5919 25.9776L66.7822 28.6613C66.8183 29.1896 70.4698 80.9579 70.565 82.4571V83.6809L71.8937 83.6842C72.0938 83.6842 91.8904 83.8351 97.0741 93.9926L99.6036 98.9499V93.4414V56.4368V56.1481L99.4724 55.889C93.7735 44.7276 69.9054 28.2512 68.8917 27.5556L66.5919 25.9776ZM68.1109 28.5793C68.1109 28.5793 92.6548 45.4362 98.2716 56.4369V93.4414C92.6548 82.4408 71.897 82.4211 71.897 82.4211C71.897 82.2636 68.1109 28.5793 68.1109 28.5793Z" fill="#FEFEFE"/>
<path fill-rule="evenodd" clip-rule="evenodd" d="M97.6745 94.068C94.1181 87.1028 69.0624 82.8181 68.8097 82.7754L68.2618 82.6836V82.1947C68.0387 80.6822 60.7684 34.4684 60.6929 33.996L60.5092 32.8149L61.6411 33.3333C63.0059 33.96 95.0695 48.7171 98.872 56.1647L98.9376 96.5452L97.6745 94.068Z" fill="#A9ABAE"/>
<path fill-rule="evenodd" clip-rule="evenodd" d="M59.6628 31.7256L60.0368 34.0878C62.5663 50.177 67.3334 80.5017 67.5958 82.2373V83.2117L68.6949 83.3954C75.6273 84.5634 94.246 88.8055 97.0741 94.3435L99.6036 99.2976V93.7923V56.4368V56.1481L99.4724 55.8889C95.6371 48.3758 65.3715 34.3405 61.933 32.7657L59.6628 31.7256ZM61.3524 33.9041C61.3524 33.9041 94.5282 49.1042 98.2716 56.4369V93.7924C94.5282 86.4564 68.9279 82.152 68.9279 82.152C68.9279 82.047 61.3524 33.9041 61.3524 33.9041Z" fill="#FEFEFE"/>
<path fill-rule="evenodd" clip-rule="evenodd" d="M97.6746 94.4194C96.4016 91.9293 77.4285 85.781 65.7652 82.4903L65.2895 82.3558V81.9588C64.8039 80.0855 54.0592 39.7968 53.9509 39.3835L53.6491 38.2549L54.8105 38.6289C59.1183 40.0265 96.9331 52.369 98.8722 56.1649L98.9378 96.8964L97.6746 94.4194Z" fill="#96989A"/>
<path fill-rule="evenodd" clip-rule="evenodd" d="M52.7041 37.2803L53.3045 39.5375C57.0512 53.5827 64.0656 79.9081 64.6234 82.0374V82.8281L65.5748 83.0938C65.6503 83.1168 73.1831 85.2461 80.8733 87.7986C95.2631 92.5722 96.8936 94.3832 97.0742 94.6981L99.607 99.6522L99.6037 94.1437V56.4371V56.1483L99.4725 55.8892C99.0164 54.9968 98.0715 53.1431 76.2048 45.2789C65.6208 41.4699 55.1319 38.0644 55.0269 38.0316L52.7041 37.2803ZM54.5971 39.2258C54.5971 39.2258 96.4015 52.7724 98.2715 56.4371V94.1437C96.4015 90.4757 65.9553 81.8865 65.9553 81.8865C65.9553 81.8307 54.5971 39.2258 54.5971 39.2258Z" fill="#FEFEFE"/>
<path fill-rule="evenodd" clip-rule="evenodd" d="M62.4712 82.1062L46.756 43.645L98.9377 55.9448V95.4133L62.4712 82.1062Z" fill="#7C1034"/>
<path fill-rule="evenodd" clip-rule="evenodd" d="M45.67 42.7393L46.5985 45.0096L61.7428 82.0732L61.9561 82.5949L62.5072 82.795L97.7925 95.6723L99.6036 96.3318V94.4945V56.4369V55.4526L98.5931 55.2131L48.1601 43.3267L45.67 42.7393ZM47.8386 44.5503L98.2715 56.4367V94.4943L62.9862 81.6171L47.8386 44.5503Z" fill="#FEFEFE"/>
</g>
<defs>
<clipPath id="clip0_27_354">
<rect width="500" height="166.667" fill="white"/>
</clipPath>
</defs>
</svg>
