<svg width="180" height="60" viewBox="0 0 180 60" fill="none" xmlns="http://www.w3.org/2000/svg">
<g clip-path="url(#clip0_27_655)">
<path d="M81.9225 59.87V48.6909H85.4174C86.0682 48.6909 86.5878 48.7996 86.9764 49.0157C87.365 49.2331 87.6437 49.5472 87.8162 49.9582C87.9886 50.3705 88.0725 50.8795 88.0725 51.4854C88.0725 51.9838 88.0134 52.4149 87.893 52.7775C87.7737 53.1401 87.5823 53.433 87.3189 53.6551C87.0567 53.8771 86.7248 54.0319 86.3256 54.1181V54.183C86.8158 54.2693 87.1937 54.4346 87.456 54.6791C87.7193 54.9224 87.9048 55.2307 88.0134 55.6051C88.1209 55.9783 88.1764 56.4201 88.1764 56.9291C88.1764 57.3732 88.1304 57.7795 88.0394 58.148C87.9473 58.5165 87.7937 58.8271 87.5752 59.0823C87.3591 59.3362 87.0674 59.5311 86.7024 59.6669C86.3363 59.8027 85.8792 59.8701 85.3311 59.8701L81.9225 59.87ZM82.8307 59.0905H85.2449C85.7481 59.0905 86.1461 59.0114 86.4378 58.8543C86.7272 58.6972 86.9363 58.4539 87.0626 58.1232C87.189 57.7925 87.2504 57.3673 87.2504 56.8476C87.2504 56.3067 87.1819 55.8732 87.0449 55.5484C86.9079 55.2224 86.6941 54.9815 86.4024 54.8244C86.1107 54.6673 85.7256 54.5893 85.2449 54.5893H82.8308L82.8307 59.0905ZM82.8307 53.8098H85.2118C85.6335 53.8098 85.989 53.7307 86.2737 53.5736C86.5595 53.4165 86.7756 53.1756 86.9256 52.8507C87.0733 52.5259 87.1477 52.1244 87.1477 51.6484C87.1477 51.1181 87.091 50.6952 86.9764 50.3811C86.8618 50.0669 86.6658 49.8389 86.3847 49.6984C86.1059 49.5578 85.7138 49.487 85.2118 49.487H82.8307V53.8098ZM90.215 48.9508V47.798H91.1741V48.9508H90.215ZM90.2493 59.87V51.5834H91.141V59.87H90.2493ZM96.5882 60C96.2126 60 95.8748 59.9622 95.5784 59.8866C95.2808 59.811 95.0327 59.6752 94.8319 59.4803C94.6335 59.2854 94.4764 59.009 94.3619 58.6511H94.2934L94.2248 59.87H93.4701V47.798H94.3619V52.6559H94.4304C94.5319 52.363 94.6772 52.1303 94.8674 51.9567C95.0552 51.7843 95.2914 51.6567 95.5784 51.5752C95.863 51.4937 96.1996 51.4535 96.5882 51.4535C97.1256 51.4535 97.5626 51.5161 97.9004 51.6402C98.2359 51.7654 98.4992 51.9815 98.687 52.2898C98.876 52.5992 99.0071 53.035 99.0815 53.5984C99.1571 54.1618 99.1926 54.8705 99.1926 55.7268C99.1926 56.5937 99.1571 57.3059 99.0815 57.8634C99.0071 58.4209 98.8737 58.8543 98.68 59.1638C98.4851 59.472 98.2229 59.6882 97.891 59.8134C97.5603 59.9374 97.1256 60 96.5882 60ZM96.3142 59.2358C96.7489 59.2358 97.0961 59.198 97.3595 59.1224C97.6217 59.0468 97.8225 58.8897 97.9595 58.6511C98.0965 58.4126 98.1874 58.0582 98.2335 57.587C98.2796 57.1157 98.302 56.4956 98.302 55.7267C98.302 54.9472 98.2796 54.3236 98.2335 53.8582C98.1874 53.3929 98.0965 53.0397 97.9595 52.8023C97.8225 52.5637 97.6217 52.4043 97.3595 52.3228C97.0961 52.2413 96.7489 52.2011 96.3142 52.2011C95.8241 52.2011 95.4355 52.2897 95.1496 52.4693C94.8638 52.6476 94.6689 52.9322 94.5674 53.322C94.4871 53.6256 94.4327 53.9586 94.4032 54.3212C94.3748 54.6838 94.3619 55.1527 94.3619 55.7267C94.3619 56.3007 94.3725 56.7614 94.3949 57.1074C94.4185 57.4547 94.4693 57.7795 94.5497 58.083C94.6524 58.4834 94.8473 58.7763 95.1319 58.9606C95.4178 59.1448 95.8122 59.2358 96.3142 59.2358ZM101.231 59.87V47.798H102.124V59.87H101.231ZM104.419 48.9508V47.798H105.378V48.9508H104.419ZM104.453 59.87V51.5834H105.345V59.87H104.453ZM110.295 60C109.759 60 109.313 59.9645 108.959 59.8948C108.605 59.824 108.322 59.6964 108.111 59.5122C107.9 59.3279 107.744 59.074 107.64 58.7492C107.537 58.4244 107.469 58.0145 107.434 57.522C107.4 57.0295 107.383 56.4366 107.383 55.7433C107.383 55.0393 107.4 54.4405 107.434 53.948C107.469 53.4543 107.537 53.0456 107.64 52.7208C107.744 52.396 107.9 52.1409 108.111 51.9567C108.322 51.7724 108.605 51.6425 108.959 51.5669C109.313 51.4913 109.759 51.4535 110.295 51.4535C110.844 51.4535 111.292 51.4913 111.64 51.5669C111.99 51.6425 112.27 51.7724 112.48 51.9567C112.691 52.1409 112.848 52.396 112.952 52.7208C113.054 53.0456 113.12 53.4543 113.148 53.948C113.178 54.4405 113.191 55.0393 113.191 55.7433C113.191 56.4366 113.178 57.0295 113.148 57.522C113.12 58.0145 113.054 58.4244 112.952 58.7492C112.848 59.074 112.691 59.3279 112.48 59.5122C112.27 59.6964 111.99 59.824 111.64 59.8948C111.292 59.9645 110.844 60 110.295 60ZM110.28 59.2689C110.782 59.2689 111.168 59.2228 111.435 59.1307C111.704 59.0385 111.904 58.8708 112.036 58.6275C112.166 58.383 112.246 58.0287 112.274 57.5633C112.303 57.0968 112.318 56.4909 112.318 55.7433C112.318 54.985 112.303 54.3696 112.274 53.8984C112.246 53.4271 112.168 53.0704 112.044 52.826C111.918 52.5826 111.718 52.4149 111.444 52.3228C111.17 52.2307 110.787 52.1846 110.295 52.1846C109.805 52.1846 109.422 52.2307 109.148 52.3228C108.873 52.4149 108.673 52.5826 108.548 52.826C108.422 53.0704 108.345 53.4271 108.317 53.8984C108.287 54.3696 108.274 54.985 108.274 55.7433C108.274 56.4909 108.287 57.0992 108.317 57.5704C108.345 58.0417 108.419 58.3972 108.539 58.6346C108.66 58.8732 108.856 59.0385 109.13 59.1307C109.404 59.2228 109.787 59.2689 110.28 59.2689ZM115.744 59.87V52.3145H114.443V51.5834H115.744V49.1787H116.636V51.5834H118.161V52.3145H116.636V59.87H115.744ZM122.393 60C121.857 60 121.408 59.9563 121.048 59.87C120.69 59.7838 120.4 59.6397 120.183 59.4389C119.966 59.2393 119.804 58.9759 119.695 58.6511C119.585 58.3263 119.512 57.9224 119.472 57.4405C119.433 56.9586 119.413 56.3929 119.413 55.7433C119.413 54.9307 119.438 54.2504 119.49 53.7035C119.541 53.1567 119.657 52.7149 119.841 52.3795C120.022 52.0441 120.314 51.8055 120.715 51.6649C121.114 51.5232 121.668 51.4535 122.376 51.4535C122.878 51.4535 123.294 51.4972 123.619 51.5834C123.944 51.6697 124.204 51.8114 124.398 52.0063C124.592 52.2012 124.733 52.4634 124.818 52.7941C124.904 53.1248 124.957 53.5299 124.981 54.013C125.003 54.4949 125.015 55.0606 125.015 55.7102V56.0031H120.286C120.286 56.674 120.309 57.222 120.354 57.6437C120.4 58.0665 120.497 58.3972 120.646 58.6346C120.794 58.8732 121.019 59.0385 121.323 59.1307C121.626 59.2228 122.033 59.2689 122.548 59.2689C122.777 59.2689 123.019 59.2606 123.276 59.2441C123.533 59.2287 123.793 59.2039 124.056 59.1708C124.318 59.1389 124.553 59.1011 124.759 59.0574V59.772C124.586 59.8157 124.37 59.8535 124.107 59.8866C123.845 59.9185 123.563 59.9456 123.267 59.9681C122.969 59.9893 122.68 60 122.393 60ZM124.157 55.6618V55.0925C124.157 54.4322 124.129 53.909 124.074 53.5252C124.016 53.1401 123.921 52.8508 123.79 52.6559C123.659 52.461 123.472 52.3311 123.233 52.2661C122.993 52.2011 122.691 52.1681 122.324 52.1681C121.867 52.1681 121.505 52.2059 121.238 52.2815C120.969 52.3582 120.765 52.5071 120.628 52.7291C120.491 52.9511 120.4 53.2677 120.354 53.6799C120.309 54.0909 120.286 54.6437 120.286 55.337H124.485L124.157 55.6618ZM129.521 60C129.019 60 128.6 59.948 128.262 59.8452C127.925 59.7425 127.661 59.5854 127.466 59.374C127.272 59.1637 127.123 58.8897 127.02 58.5543C126.917 58.2177 126.848 57.8173 126.815 57.3519C126.78 56.8854 126.764 56.3492 126.764 55.7433C126.764 55.0606 126.787 54.4724 126.833 53.9799C126.878 53.4874 126.96 53.0787 127.08 52.7527C127.2 52.4279 127.361 52.1704 127.559 51.9815C127.76 51.7913 128.016 51.6567 128.33 51.5752C128.646 51.4937 129.026 51.4535 129.47 51.4535C129.768 51.4535 130.084 51.4724 130.422 51.5102C130.757 51.548 131.036 51.5941 131.252 51.6484V52.363C131.024 52.3086 130.765 52.2661 130.473 52.233C130.181 52.2012 129.909 52.1846 129.659 52.1846C129.224 52.1846 128.876 52.233 128.614 52.3311C128.35 52.4279 128.148 52.6015 128.006 52.8508C127.863 53.1 127.769 53.4578 127.723 53.9232C127.677 54.3885 127.655 54.985 127.655 55.7102C127.655 56.4685 127.677 57.0838 127.723 57.5551C127.769 58.0263 127.863 58.3866 128.006 58.6346C128.148 58.8838 128.354 59.0527 128.622 59.1389C128.891 59.2252 129.242 59.2689 129.676 59.2689C129.963 59.2689 130.252 59.2523 130.55 59.2204C130.846 59.1874 131.098 59.1389 131.303 59.074V59.7885C131.075 59.8535 130.798 59.9055 130.473 59.9433C130.148 59.9811 129.83 60 129.521 60ZM134.935 60C134.399 60 133.952 59.935 133.599 59.8051C133.245 59.6752 132.985 59.4366 132.82 59.0905C132.653 58.7433 132.572 58.2507 132.572 57.6118C132.572 56.9941 132.638 56.5122 132.768 56.1649C132.899 55.8189 133.12 55.5756 133.428 55.4338C133.736 55.2933 134.171 55.2224 134.73 55.2224C134.867 55.2224 135.039 55.2224 135.244 55.2224C135.45 55.2224 135.67 55.2283 135.905 55.2389C136.139 55.2496 136.369 55.2578 136.598 55.2637C136.826 55.2685 137.043 55.2767 137.249 55.2885V54.6212C137.249 54.059 137.219 53.6114 137.164 53.2819C137.106 52.9511 137.003 52.7067 136.854 52.5496C136.707 52.3925 136.493 52.2933 136.212 52.2496C135.932 52.2059 135.569 52.1846 135.125 52.1846C134.942 52.1846 134.725 52.1929 134.473 52.2094C134.222 52.2248 133.97 52.2472 133.718 52.2744C133.468 52.3015 133.228 52.3358 133 52.3795V51.6649C133.365 51.5893 133.744 51.535 134.14 51.5019C134.533 51.47 134.947 51.4535 135.381 51.4535C135.839 51.4535 136.227 51.483 136.546 51.5433C136.866 51.6023 137.128 51.7004 137.334 51.835C137.539 51.9708 137.7 52.1574 137.813 52.396C137.928 52.6346 138.008 52.9322 138.054 53.2889C138.1 53.6468 138.123 54.0696 138.123 54.5563V59.87H137.386L137.317 58.6511H137.232C137.128 59.0196 136.969 59.3019 136.752 59.4968C136.534 59.6917 136.272 59.824 135.964 59.8948C135.656 59.9645 135.313 60 134.935 60ZM135.125 59.2689C135.456 59.2689 135.739 59.2476 135.973 59.2039C136.207 59.1602 136.409 59.0763 136.58 58.9523C136.752 58.8271 136.877 58.6464 136.958 58.4078C137.06 58.1374 137.135 57.8504 137.18 57.5468C137.226 57.2433 137.249 56.896 137.249 56.5063V55.8897H134.953C134.542 55.8897 134.228 55.9299 134.01 56.0114C133.793 56.0917 133.645 56.2547 133.565 56.498C133.485 56.7425 133.444 57.1027 133.444 57.5787C133.444 58.0334 133.488 58.383 133.574 58.6275C133.658 58.8708 133.825 59.0385 134.072 59.1307C134.316 59.2228 134.668 59.2689 135.125 59.2689ZM145.885 59.87L142.733 48.6909H143.709L146.415 58.5543H146.502L149.226 48.6909H150.151L147.015 59.87H145.885ZM151.522 48.9508V47.798H152.481V48.9508H151.522ZM151.555 59.87V51.5834H152.447V59.87H151.555ZM154.776 59.87V51.5834H155.531L155.6 53.1921H155.668C155.771 52.748 155.926 52.3984 156.131 52.1445C156.337 51.8894 156.594 51.711 156.901 51.6083C157.211 51.5043 157.576 51.4535 157.998 51.4535V52.298C157.382 52.298 156.901 52.4279 156.559 52.6878C156.216 52.9488 155.982 53.335 155.857 53.85C155.731 54.3649 155.668 55.0063 155.668 55.7752V59.8701L154.776 59.87ZM160.003 59.87V52.3145H158.701V51.5834H160.003V49.1787H160.894V51.5834H162.419V52.3145H160.894V59.87H160.003ZM166.292 60C165.778 60 165.364 59.9409 165.049 59.8216C164.735 59.7023 164.496 59.5181 164.33 59.2689C164.164 59.0196 164.053 58.6925 163.996 58.2862C163.938 57.8799 163.91 57.3897 163.91 56.8157V51.5834H164.801V56.5878C164.801 57.1724 164.824 57.6413 164.87 57.9933C164.915 58.3452 165.001 58.6133 165.127 58.7976C165.253 58.9819 165.432 59.1011 165.666 59.1555C165.9 59.2098 166.207 59.2358 166.583 59.2358C167.062 59.2358 167.438 59.1602 167.705 59.009C167.974 58.8567 168.166 58.6346 168.28 58.3429C168.394 58.05 168.465 57.6956 168.494 57.2787C168.522 56.8618 168.537 56.3988 168.537 55.8897V51.5834H169.428V59.87H168.674L168.622 58.6511H168.537C168.445 58.9334 168.311 59.1767 168.133 59.3822C167.956 59.5889 167.72 59.7425 167.422 59.8452C167.126 59.948 166.749 60 166.292 60ZM173.626 60C173.088 60 172.643 59.935 172.288 59.8051C171.935 59.6752 171.674 59.4366 171.509 59.0905C171.344 58.7433 171.261 58.2507 171.261 57.6118C171.261 56.9941 171.327 56.5122 171.458 56.1649C171.588 55.8189 171.809 55.5756 172.118 55.4338C172.425 55.2933 172.86 55.2224 173.42 55.2224C173.557 55.2224 173.728 55.2224 173.934 55.2224C174.139 55.2224 174.359 55.2283 174.594 55.2389C174.828 55.2496 175.058 55.2578 175.287 55.2637C175.515 55.2685 175.733 55.2767 175.938 55.2885V54.6212C175.938 54.059 175.91 53.6114 175.853 53.2819C175.796 52.9511 175.692 52.7067 175.545 52.5496C175.396 52.3925 175.182 52.2933 174.902 52.2496C174.621 52.2059 174.259 52.1846 173.814 52.1846C173.631 52.1846 173.414 52.1929 173.163 52.2094C172.911 52.2248 172.659 52.2472 172.408 52.2744C172.157 52.3015 171.918 52.3358 171.69 52.3795V51.6649C172.055 51.5893 172.435 51.535 172.829 51.5019C173.223 51.47 173.636 51.4535 174.071 51.4535C174.528 51.4535 174.916 51.483 175.235 51.5433C175.555 51.6023 175.819 51.7004 176.024 51.835C176.23 51.9708 176.39 52.1574 176.504 52.396C176.618 52.6346 176.698 52.9322 176.744 53.2889C176.79 53.6468 176.812 54.0696 176.812 54.5563V59.87H176.075L176.007 58.6511H175.922C175.819 59.0196 175.659 59.3019 175.441 59.4968C175.225 59.6917 174.961 59.824 174.654 59.8948C174.345 59.9645 174.002 60 173.626 60ZM173.814 59.2689C174.145 59.2689 174.429 59.2476 174.662 59.2039C174.896 59.1602 175.098 59.0763 175.271 58.9523C175.441 58.8271 175.567 58.6464 175.648 58.4078C175.75 58.1374 175.825 57.8504 175.87 57.5468C175.916 57.2433 175.938 56.896 175.938 56.5063V55.8897H173.642C173.231 55.8897 172.918 55.9299 172.7 56.0114C172.483 56.0917 172.335 56.2547 172.255 56.498C172.174 56.7425 172.134 57.1027 172.134 57.5787C172.134 58.0334 172.177 58.383 172.264 58.6275C172.349 58.8708 172.514 59.0386 172.761 59.1307C173.007 59.2228 173.357 59.2689 173.814 59.2689ZM179.108 59.87V47.798H180V59.87H179.108Z" fill="#0D6239"/>
<path d="M114.99 32.1885V0.732269H124.391L132.588 21.4901H132.878L141.026 0.732269H147.294L134.872 32.1885H130.226L121.644 10.2885H121.402V32.1885H114.99Z" fill="#7C1034"/>
<path d="M94.6229 45.2975V13.8413H117.285V19.1444H101.47V26.7802H115.018V32.0834H101.47V39.9944H117.285V45.2975H94.6229Z" fill="#96294D"/>
<path d="M81.4831 31.4563V0H103.18V5.30314H88.3302V13.8082H101.396V19.1114H88.3302V31.4563H81.4831Z" fill="#7C1034"/>
<path d="M176.117 12.4405H176.566H179.203V43.8968H172.597V22.2189V21.9968H172.356L163.774 43.8968H163.696L176.117 12.4405Z" fill="#96294D"/>
<path d="M143.821 43.8968V12.4405H153.224L161.42 33.1983H161.709L169.858 12.4405H176.126L163.705 43.8968H159.058L150.476 21.9968H150.234V43.8968H143.821Z" fill="#7C1034"/>
<path d="M147.294 0.732269H147.744H150.379V32.1885H143.774V10.5094V10.2885H143.533L134.951 32.1885H134.872L147.294 0.732269Z" fill="#96294D"/>
<path fill-rule="evenodd" clip-rule="evenodd" d="M64.7058 38.1602H6.54596V3.9567H64.7058V38.1602Z" fill="#FEFEFE"/>
<path fill-rule="evenodd" clip-rule="evenodd" d="M42.5884 39.0625C42.5884 39.4133 42.2896 39.6968 41.9187 39.6968H28.9195C28.5499 39.6968 28.2499 39.4133 28.2499 39.0625L5.5562 39.0684H0.532981C0.238888 39.0684 0.000305176 39.294 0.000305176 39.5728V40.5271C0.000305176 41.9184 5.31998 42.0684 6.78692 42.0684H50.6176L48.4869 39.0637L42.5884 39.0625Z" fill="#7C1034"/>
<path fill-rule="evenodd" clip-rule="evenodd" d="M70.3055 39.0684H65.2834L48.487 39.0637L50.6177 42.0684H64.0515C65.5196 42.0684 70.8382 41.9184 70.8382 40.5271V39.5728C70.8382 39.294 70.5996 39.0684 70.3055 39.0684Z" fill="#96294D"/>
<path fill-rule="evenodd" clip-rule="evenodd" d="M8.52904 36.6035V5.88544H24.9593L23.0589 3.20789H7.37156C6.36881 3.20789 5.55621 3.97797 5.55621 4.92875V38.7117H48.2364L46.7412 36.6035L8.52904 36.6035Z" fill="#7C1034"/>
<path fill-rule="evenodd" clip-rule="evenodd" d="M35.4192 4.84843C35.2408 4.84843 35.0956 4.71142 35.0956 4.54135C35.0956 4.37245 35.2408 4.23426 35.4192 4.23426C35.5975 4.23426 35.7428 4.37245 35.7428 4.54135C35.7428 4.71142 35.5975 4.84843 35.4192 4.84843ZM65.2833 4.92875C65.2833 3.97796 64.4695 3.20789 63.4679 3.20789H23.059L24.9593 5.88544H62.3093V36.6035H46.7412L48.2365 38.7118H65.2833V4.92875Z" fill="#96294D"/>
<path fill-rule="evenodd" clip-rule="evenodd" d="M35.2219 20.2653C37.8995 15.0212 43.6443 8.29489 43.7022 8.22755L44.1274 7.73267V30.0684L43.8227 29.9869C43.8156 29.9846 43.0609 29.7873 41.9979 29.7873C40.0042 29.7873 37.2901 30.4511 35.6767 33.6117L35.222 34.5035L35.2219 20.2653Z" fill="#D2D3D5"/>
<path fill-rule="evenodd" clip-rule="evenodd" d="M44.3672 7.09369L43.5156 8.08463C43.4578 8.15077 37.7188 14.8523 35.0294 20.1201L34.9822 20.2134V20.3173V33.5125V35.4944L35.8928 33.711C37.4519 30.6554 40.0739 30.0153 41.9979 30.0153C43.0231 30.0153 43.7507 30.2043 43.7578 30.2054L44.366 30.3673L44.3672 29.7684V29.6929V8.37161L44.3672 7.09369ZM43.8877 8.37164V29.6929V29.7685C43.8877 29.7685 43.1117 29.5606 41.9979 29.5606C40.0822 29.5606 37.166 30.1736 35.4617 33.5126V20.3173C38.157 15.0366 43.8877 8.37164 43.8877 8.37164Z" fill="#FEFEFE"/>
<path fill-rule="evenodd" clip-rule="evenodd" d="M35.2219 20.2653C37.2463 16.298 45.8164 10.3535 46.179 10.1043L46.5935 9.81967L46.5593 10.3027C46.5451 10.4953 45.2081 29.4637 45.1963 29.6811L45.1845 29.8972L44.9565 29.8996C44.8833 29.8996 37.6101 29.9527 35.6766 33.7382L35.2219 34.6299L35.2219 20.2653Z" fill="#BDBFC1"/>
<path fill-rule="evenodd" clip-rule="evenodd" d="M46.8664 9.35199L46.0385 9.9201C45.6735 10.1705 37.081 16.102 35.0294 20.1201L34.9822 20.2134V20.3173V33.639V35.622L35.8928 33.8374C37.7589 30.1807 44.8857 30.1264 44.9577 30.1264L45.4361 30.1252V29.6846C45.4703 29.1472 46.7849 10.5083 46.7979 10.3182L46.8664 9.35199ZM46.3196 10.2886C46.3196 10.2886 44.9566 29.6149 44.9566 29.6717C44.9566 29.6717 37.4826 29.6787 35.4617 33.639V20.3173C37.4838 16.3571 46.3196 10.2886 46.3196 10.2886Z" fill="#FEFEFE"/>
<path fill-rule="evenodd" clip-rule="evenodd" d="M35.2219 20.2653C36.5908 17.5842 48.1574 12.2256 48.6487 12L49.0562 11.8134L48.99 12.2386C48.9629 12.4086 46.3455 29.0456 46.2652 29.5901V29.7661L46.068 29.7991C45.977 29.8145 36.9558 31.3582 35.6766 33.8645L35.2219 34.7562L35.2219 20.2653Z" fill="#A9ABAE"/>
<path fill-rule="evenodd" clip-rule="evenodd" d="M49.3609 11.4213L48.5435 11.7957C47.3057 12.3626 36.4101 17.4153 35.0294 20.12L34.9821 20.2133V20.3173V33.7653V35.7472L35.8927 33.9637C36.9109 31.97 43.6124 30.4428 46.1093 30.0224L46.5049 29.9562V29.6054C46.5994 28.9818 48.3155 18.0637 49.2262 12.2716L49.3609 11.4213ZM48.7526 12.2055C48.7526 12.2055 46.0254 29.537 46.0254 29.5748C46.0254 29.5748 36.8093 31.1244 35.4617 33.7653V20.3174C36.8093 17.6776 48.7526 12.2055 48.7526 12.2055Z" fill="#FEFEFE"/>
<path fill-rule="evenodd" clip-rule="evenodd" d="M35.2219 20.2653C35.9188 18.8988 49.5569 14.4095 51.1077 13.9063L51.5258 13.7717L51.4172 14.178C51.377 14.3268 47.5101 28.8307 47.3353 29.5051V29.648L47.164 29.6964C42.9652 30.8811 36.1349 33.0944 35.6767 33.9909L35.222 34.8826L35.2219 20.2653Z" fill="#96989A"/>
<path fill-rule="evenodd" clip-rule="evenodd" d="M51.866 13.4209L51.0297 13.6913C50.9919 13.7032 47.216 14.9291 43.4057 16.3004C35.5337 19.1315 35.1936 19.7988 35.0294 20.1201L34.9821 20.2134V20.3173V33.8917V35.8748L35.8927 34.0901C35.9577 33.9779 36.5447 33.3259 41.7286 31.6063C44.4959 30.6874 47.2041 29.922 47.2313 29.9138L47.575 29.8181V29.5334C47.7746 28.7669 50.301 19.2897 51.6498 14.2335L51.866 13.4209ZM51.1845 14.1213C51.1845 14.1213 47.0955 29.459 47.0955 29.4791C47.0955 29.4791 36.1349 32.5712 35.4617 33.8917V20.3173C36.1349 18.998 51.1845 14.1213 51.1845 14.1213Z" fill="#FEFEFE"/>
<path fill-rule="evenodd" clip-rule="evenodd" d="M35.2219 20.1401L54.0073 15.7122L48.3499 29.5582L35.2219 34.3488V20.1401Z" fill="#96294D"/>
<path fill-rule="evenodd" clip-rule="evenodd" d="M54.3983 15.3862L53.5018 15.5976L35.346 19.8767L34.9822 19.963V20.3173V34.018V34.6794L35.633 34.442L48.3369 29.8062L48.5341 29.7342L48.6109 29.5464L54.064 16.2035L54.3983 15.3862ZM53.6176 16.0382L48.1644 29.3822L35.4617 34.018V20.3173L53.6176 16.0382Z" fill="#FEFEFE"/>
<path fill-rule="evenodd" clip-rule="evenodd" d="M35.1629 33.6117C33.5495 30.4511 30.8341 29.7873 28.8416 29.7873C27.7774 29.7873 27.0239 29.9846 27.0168 29.9869L26.7121 30.0684V7.73267L27.1373 8.22755C27.1952 8.29487 32.9164 14.9752 35.594 20.2193L35.6176 34.5035L35.1629 33.6117Z" fill="#D2D3D5"/>
<path fill-rule="evenodd" clip-rule="evenodd" d="M26.4723 7.09369V8.37164V29.6929V29.7685V30.3697L27.0817 30.2055C27.0888 30.2043 27.8152 30.0153 28.8416 30.0153C30.7656 30.0153 33.3876 30.6567 34.9467 33.711L35.8573 35.4956V33.5126V20.3173V20.2134L35.8101 20.1201C33.1207 14.8524 27.3806 8.15081 27.3239 8.08467L26.4723 7.09369ZM26.9518 8.37164C26.9518 8.37164 32.6825 15.0366 35.3778 20.3173V33.5125C33.6735 30.1735 30.7573 29.5606 28.8416 29.5606C27.7278 29.5606 26.9518 29.7684 26.9518 29.7684V29.6928L26.9518 8.37164Z" fill="#FEFEFE"/>
<path fill-rule="evenodd" clip-rule="evenodd" d="M35.1629 33.7381C33.2282 29.9492 25.9562 29.8996 25.883 29.8996L25.6432 29.8984V29.6716C25.6314 29.4637 24.2932 10.4953 24.2802 10.3028L24.246 9.8197L24.6605 10.1043C25.0231 10.3536 33.5696 16.252 35.594 20.2193L35.6176 34.6299L35.1629 33.7381Z" fill="#BDBFC1"/>
<path fill-rule="evenodd" clip-rule="evenodd" d="M23.9731 9.35198L24.0416 10.3181C24.0546 10.5083 25.3692 29.1449 25.4034 29.6846V30.1252L25.8818 30.1263C25.9538 30.1263 33.0806 30.1807 34.9467 33.8374L35.8573 35.622V33.6389V20.3173V20.2134L35.8101 20.1201C33.7585 16.102 25.166 10.1705 24.801 9.92007L23.9731 9.35198ZM24.52 10.2886C24.52 10.2886 33.3558 16.3571 35.3778 20.3173V33.639C33.3558 29.6787 25.8829 29.6716 25.8829 29.6716C25.8829 29.615 24.52 10.2886 24.52 10.2886Z" fill="#FEFEFE"/>
<path fill-rule="evenodd" clip-rule="evenodd" d="M35.1628 33.8645C33.8825 31.357 24.8625 29.8145 24.7715 29.7992L24.5743 29.7661V29.5901C24.494 29.0456 21.8766 12.4086 21.8495 12.2386L21.7833 11.8134L22.1908 12C22.6821 12.2256 34.225 17.5382 35.5939 20.2193L35.6176 34.7563L35.1628 33.8645Z" fill="#A9ABAE"/>
<path fill-rule="evenodd" clip-rule="evenodd" d="M21.4786 11.4212L21.6133 12.2716C22.5239 18.0637 24.24 28.9806 24.3345 29.6054V29.9562L24.7302 30.0224C27.2259 30.4428 33.9286 31.97 34.9467 33.9637L35.8573 35.7471V33.7653V20.3173V20.2133L35.8101 20.12C34.4294 17.4153 23.5337 12.3626 22.2959 11.7957L21.4786 11.4212ZM22.0869 12.2055C22.0869 12.2055 34.0302 17.6775 35.3778 20.3173V33.7653C34.0302 31.1243 24.8141 29.5747 24.8141 29.5747C24.8141 29.5369 22.0869 12.2055 22.0869 12.2055Z" fill="#FEFEFE"/>
<path fill-rule="evenodd" clip-rule="evenodd" d="M35.1629 33.9909C34.7046 33.0944 27.8743 30.8811 23.6755 29.6964L23.5043 29.648V29.5051C23.3295 28.8307 19.4614 14.3267 19.4224 14.178L19.3137 13.7717L19.7318 13.9063C21.2826 14.4095 34.896 18.8528 35.594 20.2193L35.6176 34.8826L35.1629 33.9909Z" fill="#96989A"/>
<path fill-rule="evenodd" clip-rule="evenodd" d="M18.9735 13.4209L19.1897 14.2335C20.5385 19.2898 23.0637 28.7669 23.2644 29.5334V29.8181L23.607 29.9137C23.6341 29.922 26.3459 30.6886 29.1144 31.6074C34.2947 33.326 34.8817 33.9779 34.9467 34.0913L35.8585 35.8748L35.8574 33.8917V20.3173V20.2134L35.8101 20.1201C35.6459 19.7988 35.3058 19.1315 27.4338 16.3004C23.6235 14.9291 19.8475 13.7031 19.8097 13.6913L18.9735 13.4209ZM19.655 14.1213C19.655 14.1213 34.7046 18.998 35.3778 20.3173V33.8917C34.7046 32.5712 23.744 29.4791 23.744 29.4791C23.744 29.459 19.655 14.1213 19.655 14.1213Z" fill="#FEFEFE"/>
<path fill-rule="evenodd" clip-rule="evenodd" d="M22.4896 29.5582L16.8322 15.7122L35.6176 20.1401V34.3488L22.4896 29.5582Z" fill="#7C1034"/>
<path fill-rule="evenodd" clip-rule="evenodd" d="M16.4412 15.3862L16.7755 16.2035L22.2274 29.5464L22.3042 29.7342L22.5026 29.8063L35.2053 34.4421L35.8573 34.6795V34.0181V20.3173V19.963L35.4935 19.8768L17.3377 15.5977L16.4412 15.3862ZM17.2219 16.0382L35.3778 20.3173V34.018L22.6751 29.3822L17.2219 16.0382Z" fill="#FEFEFE"/>
</g>
<defs>
<clipPath id="clip0_27_655">
<rect width="180" height="60" fill="white"/>
</clipPath>
</defs>
</svg>
