<svg width="40" height="40" viewBox="0 0 40 40" fill="none" xmlns="http://www.w3.org/2000/svg">
<path d="M12.565 37.4998C27.66 37.4998 35.9175 24.9923 35.9175 14.1648C35.9175 13.8148 35.9175 13.4598 35.9025 13.1098C37.5101 11.946 38.8977 10.5052 40 8.85478C38.4983 9.51691 36.9069 9.95329 35.2775 10.1498C36.9938 9.12387 38.2793 7.5097 38.895 5.60728C37.2825 6.56259 35.5175 7.23321 33.6775 7.58978C32.4405 6.27234 30.8035 5.39957 29.0202 5.10667C27.2369 4.81377 25.4068 5.11708 23.8133 5.96962C22.2199 6.82216 20.952 8.17635 20.2061 9.82243C19.4602 11.4685 19.2779 13.3146 19.6875 15.0748C16.4244 14.9112 13.232 14.0634 10.3176 12.5866C7.40317 11.1098 4.83171 9.03689 2.77 6.50228C1.72335 8.30999 1.40393 10.4483 1.87662 12.4829C2.3493 14.5176 3.57864 16.2961 5.315 17.4573C4.01385 17.4131 2.7413 17.0637 1.6 16.4373V16.5498C1.60224 18.4435 2.25827 20.2783 3.45718 21.7442C4.6561 23.21 6.32437 24.217 8.18 24.5948C7.47566 24.7888 6.74807 24.8855 6.0175 24.8823C5.50246 24.8838 4.98845 24.8361 4.4825 24.7398C5.00697 26.3699 6.02818 27.7952 7.40312 28.816C8.77805 29.8368 10.4378 30.4019 12.15 30.4323C9.24139 32.7168 5.6485 33.9558 1.95 33.9498C1.2983 33.9525 0.647058 33.915 0 33.8373C3.75379 36.2304 8.11324 37.5012 12.565 37.4998Z" fill="#DBE7E1"/>
</svg>
