<?xml version="1.0" encoding="UTF-8"?>
<!DOCTYPE svg PUBLIC "-//W3C//DTD SVG 1.1//EN" "http://www.w3.org/Graphics/SVG/1.1/DTD/svg11.dtd">
<!-- Creator: CorelDRAW -->
<svg xmlns="http://www.w3.org/2000/svg" xml:space="preserve" width="15.24mm" height="5.08mm" style="shape-rendering:geometricPrecision; text-rendering:geometricPrecision; image-rendering:optimizeQuality; fill-rule:evenodd; clip-rule:evenodd"
viewBox="0 0 3.12989 1.0433"
 xmlns:xlink="http://www.w3.org/1999/xlink">
 <defs>
  <style type="text/css">
   <![CDATA[
    .fil3 {fill:#FEFEFE}
    .fil10 {fill:#96989A}
    .fil9 {fill:#A9ABAE}
    .fil7 {fill:#BDBFC1}
    .fil6 {fill:#D2D3D5}
    .fil8 {fill:#FEFEFE}
    .fil4 {fill:#7C1034}
    .fil5 {fill:#96294D}
    .fil0 {fill:#0D6239;fill-rule:nonzero}
    .fil1 {fill:#7C1034;fill-rule:nonzero}
    .fil2 {fill:#96294D;fill-rule:nonzero}
   ]]>
  </style>
 </defs>
 <g id="Camada_x0020_1">
  <metadata id="CorelCorpID_0Corel-Layer"/>
  <path class="fil0" d="M1.42449 1.04104l0 -0.194386 0.0607701 0c0.0113161,0 0.0203525,0.00188944 0.0271093,0.00564778 0.00675679,0.00377888 0.0116036,0.00924182 0.0146021,0.0163888 0.00299846,0.00716754 0.00445661,0.0160191 0.00445661,0.0265548 0,0.00866677 -0.00102687,0.0161629 -0.00312168,0.0224679 -0.00207427,0.00630497 -0.00540133,0.0113982 -0.00998116,0.0152593 -0.0045593,0.00386103 -0.0103303,0.00655142 -0.0172719,0.00805065l0 0.00112956c0.00852301,0.00149923 0.015095,0.00437446 0.0196543,0.00862569 0.00457983,0.0042307 0.0078042,0.00959095 0.00969364,0.0161013 0.0018689,0.00648981 0.00283416,0.0141708 0.00283416,0.0230224 0,0.00772205 -0.000800957,0.0147869 -0.00238233,0.0211946 -0.00160191,0.00640766 -0.00427177,0.011809 -0.00807119,0.0162451 -0.00375834,0.00441553 -0.00883107,0.0078042 -0.0151771,0.010166 -0.00636658,0.0023618 -0.0143145,0.00353243 -0.0238439,0.00353243l-0.0592708 0zm0.0157932 -0.0135547l0.0419784 0c0.00874892,0 0.01567,-0.001376 0.0207427,-0.00410747 0.00503166,-0.00273147 0.00866677,-0.00696217 0.0108643,-0.0127126 0.0021975,-0.00575046 0.00326544,-0.0131439 0.00326544,-0.0221804 0,-0.00940611 -0.00119117,-0.0169433 -0.0035735,-0.0225911 -0.00238233,-0.00566831 -0.0060996,-0.00985794 -0.0111723,-0.0125894 -0.00507273,-0.00273147 -0.0117679,-0.00408694 -0.0201266,-0.00408694l-0.0419784 0 0 0.0782679zm0 -0.0918226l0.0414033 0c0.00733184,0 0.0135136,-0.001376 0.0184631,-0.00410747 0.00497004,-0.00273147 0.00872838,-0.00692109 0.0113366,-0.0125689 0.00256717,-0.00564778 0.00386103,-0.0126305 0.00386103,-0.020907 0,-0.00922128 -0.000985794,-0.0165737 -0.00297792,-0.0220366 -0.00199212,-0.00546294 -0.00540133,-0.00942665 -0.0102892,-0.0118706 -0.00484682,-0.00244395 -0.0116652,-0.00367619 -0.0203936,-0.00367619l-0.0414033 0 0 0.0751668zm0.1284 -0.0844907l0 -0.0200445 0.0166763 0 0 0.0200445 -0.0166763 0zm0.000595584 0.189868l0 -0.14409 0.0155057 0 0 0.14409 -0.0155057 0zm0.110224 0.00225911c-0.00653088,0 -0.0124046,-0.000657196 -0.0175594,-0.00197159 -0.00517542,-0.00131439 -0.00948826,-0.00367619 -0.0129796,-0.00706485 -0.00345028,-0.00338867 -0.00618175,-0.00819441 -0.00817387,-0.0144172l-0.00119117 0 -0.00119117 0.0211946 -0.0131234 0 0 -0.209912 0.0155057 0 0 0.0844702 0.00119117 0c0.00176621,-0.00509327 0.00429231,-0.00913913 0.00759883,-0.0121581 0.00326544,-0.00299846 0.00737291,-0.00521649 0.0123635,-0.00663357 0.00494951,-0.00141708 0.0108027,-0.00211535 0.0175594,-0.00211535 0.0093445,0 0.0169433,0.00108848 0.022817,0.0032449 0.00583261,0.00217696 0.0104124,0.0059353 0.0136779,0.0112956 0.00328598,0.00538079 0.00556563,0.0129591 0.00685948,0.0227554 0.00131439,0.00979632 0.00193051,0.0221187 0.00193051,0.0370083 0,0.0150744 -0.000616121,0.0274585 -0.00193051,0.0371521 -0.00129385,0.00969364 -0.00361458,0.0172309 -0.0069827,0.0226116 -0.00338867,0.00536025 -0.00794796,0.00911859 -0.013719,0.0112956 -0.00575046,0.00215642 -0.0133082,0.0032449 -0.0226527,0.0032449zm-0.00476467 -0.0132877c0.00755775,0 0.0135957,-0.000657196 0.0181756,-0.00197159 0.0045593,-0.00131439 0.00805065,-0.00404586 0.010433,-0.00819441 0.00238233,-0.00414855 0.00396371,-0.0103098 0.00476467,-0.0185042 0.000800957,-0.00819441 0.00119117,-0.0189765 0.00119117,-0.0323464 0,-0.0135547 -0.00039021,-0.0243984 -0.00119117,-0.0324901 -0.000800957,-0.00809172 -0.00238233,-0.0142324 -0.00476467,-0.0183604 -0.00238233,-0.00414855 -0.00587369,-0.00692109 -0.010433,-0.00833817 -0.00457983,-0.00141708 -0.0106178,-0.00211535 -0.0181756,-0.00211535 -0.00852301,0 -0.0152798,0.0015403 -0.0202498,0.00466198 -0.00497004,0.00310114 -0.00835871,0.00805065 -0.0101249,0.014828 -0.00139654,0.0052781 -0.00234126,0.0110696 -0.00285469,0.0173746 -0.000492897,0.00630497 -0.000718808,0.0144583 -0.000718808,0.0244395 0,0.00998116 0.000184836,0.0179907 0.000575046,0.0240082 0.000410747,0.00603799 0.00129385,0.0116858 0.0026904,0.0169639 0.00178675,0.00696217 0.00517542,0.0120554 0.0101249,0.0152593 0.00497004,0.00320383 0.0118295,0.00478521 0.0205579,0.00478521zm0.0854971 0.0110286l0 -0.209912 0.0155262 0 0 0.209912 -0.0155262 0zm0.0554304 -0.189868l0 -0.0200445 0.0166763 0 0 0.0200445 -0.0166763 0zm0.000595584 0.189868l0 -0.14409 0.0155057 0 0 0.14409 -0.0155057 0zm0.101578 0.00225911c-0.00932396,0 -0.0170666,-0.000616121 -0.0232278,-0.00182783 -0.00616121,-0.00123224 -0.0110696,-0.00345028 -0.0147458,-0.00665411 -0.00367619,-0.00320383 -0.00638712,-0.00761936 -0.00819441,-0.0132671 -0.00178675,-0.00564778 -0.00297792,-0.0127742 -0.0035735,-0.0213383 -0.000595584,-0.00856408 -0.000883107,-0.0188738 -0.000883107,-0.0309293 0,-0.0122403 0.000287523,-0.0226527 0.000883107,-0.0312168 0.000595584,-0.00858462 0.00178675,-0.0156905 0.0035735,-0.0213383 0.00180729,-0.00564778 0.00451822,-0.0100838 0.00819441,-0.0132877 0.00367619,-0.00320383 0.00858462,-0.00546294 0.0147458,-0.00677733 0.00616121,-0.00131439 0.0139038,-0.00197159 0.0232278,-0.00197159 0.00954988,0 0.0173335,0.000657196 0.0233921,0.00197159 0.00607906,0.00131439 0.0109464,0.0035735 0.0146021,0.00677733 0.00367619,0.00320383 0.00640766,0.0076399 0.00821495,0.0132877 0.00176621,0.00564778 0.00291631,0.0127537 0.0034092,0.0213383 0.000513434,0.00856408 0.000739345,0.0189765 0.000739345,0.0312168 0,0.0120554 -0.000225911,0.0223652 -0.000739345,0.0309293 -0.000492897,0.00856408 -0.00164299,0.0156905 -0.0034092,0.0213383 -0.00180729,0.00564778 -0.00453876,0.0100633 -0.00821495,0.0132671 -0.00365565,0.00320383 -0.00852301,0.00542187 -0.0146021,0.00665411 -0.00605852,0.0012117 -0.0138422,0.00182783 -0.0233921,0.00182783zm-0.000266986 -0.0127126c0.00872838,0 0.0154441,-0.000800957 0.0200855,-0.00240287 0.00468252,-0.00160191 0.00815333,-0.00451822 0.0104535,-0.00874892 0.00225911,-0.00425124 0.00365565,-0.0104124 0.00414855,-0.0185042 0.000492897,-0.00811226 0.000759883,-0.0186479 0.000759883,-0.0316481 0,-0.013185 -0.000266986,-0.023885 -0.000759883,-0.0320794 -0.000492897,-0.00819441 -0.00184836,-0.0143967 -0.00400479,-0.0186479 -0.0021975,-0.0042307 -0.00566831,-0.007147 -0.010433,-0.00874892 -0.00476467,-0.00160191 -0.0114188,-0.00240287 -0.0199829,-0.00240287 -0.00852301,0 -0.0151771,0.000800957 -0.0199418,0.00240287 -0.00478521,0.00160191 -0.00825602,0.00451822 -0.010433,0.00874892 -0.0021975,0.00425124 -0.00353243,0.0104535 -0.00402532,0.0186479 -0.000513434,0.00819441 -0.000739345,0.0188944 -0.000739345,0.0320794 0,0.0130002 0.000225911,0.0235769 0.000739345,0.0317713 0.000492897,0.00819441 0.00178675,0.0143762 0.00386103,0.0185042 0.00211535,0.00414855 0.00552455,0.00702378 0.0102892,0.00862569 0.00476467,0.00160191 0.0114188,0.00240287 0.0199829,0.00240287zm0.0950264 0.0104535l0 -0.131378 -0.0226322 0 0 -0.0127126 0.0226322 0 0 -0.0418141 0.0155057 0 0 0.0418141 0.0265137 0 0 0.0127126 -0.0265137 0 0 0.131378 -0.0155057 0zm0.115605 0.00225911c-0.00932396,0 -0.0171282,-0.000759883 -0.0233921,-0.00225911 -0.00622282,-0.00149923 -0.0112545,-0.00400479 -0.0150334,-0.00749614 -0.00377888,-0.00347082 -0.00659249,-0.00805065 -0.00848193,-0.0136984 -0.00190998,-0.00564778 -0.00318329,-0.0126716 -0.00388156,-0.0210508 -0.000677733,-0.00837925 -0.00102687,-0.0182166 -0.00102687,-0.0295122 0,-0.0141297 0.000431285,-0.0259592 0.00133493,-0.035468 0.000883107,-0.0095088 0.00291631,-0.0171898 0.0060996,-0.0230224 0.00316275,-0.00583261 0.00823548,-0.00998116 0.0151977,-0.0124251 0.00694163,-0.00246448 0.0165737,-0.00367619 0.0288961,-0.00367619 0.00872838,0 0.0159575,0.000759883 0.0216053,0.00225911 0.00564778,0.00149923 0.010166,0.00396371 0.0135547,0.00735238 0.00336813,0.00338867 0.00581208,0.00794796 0.00729077,0.0136984 0.00149923,0.00575046 0.00242341,0.0127948 0.00283416,0.0211946 0.00039021,0.00837925 0.000595584,0.0182166 0.000595584,0.0295122l0 0.00509327 -0.0822316 0c0,0.0116652 0.000410747,0.0211946 0.00119117,0.0285264 0.000800957,0.00735238 0.00248502,0.0131028 0.00507273,0.0172309 0.00256717,0.00414855 0.00648981,0.00702378 0.0117679,0.00862569 0.0052781,0.00160191 0.012343,0.00240287 0.0212973,0.00240287 0.00398425,0 0.00819441,-0.000143762 0.0126716,-0.000431285 0.00445661,-0.000266986 0.00897483,-0.00069827 0.0135547,-0.00127332 0.0045593,-0.000554509 0.00864623,-0.0012117 0.0122197,-0.00197159l0 0.0124251c-0.00299846,0.000759883 -0.00675679,0.00141708 -0.0113366,0.00199212 -0.0045593,0.000554509 -0.00944719,0.00102687 -0.0146021,0.00141708 -0.00517542,0.000369673 -0.0102071,0.000554509 -0.0151977,0.000554509zm0.0306828 -0.0754338l0 -0.00989901c0,-0.0114804 -0.000492897,-0.0205784 -0.00145815,-0.0272531 -0.00100633,-0.00669518 -0.00264932,-0.0117268 -0.00492897,-0.0151155 -0.00227965,-0.00338867 -0.00552455,-0.00564778 -0.00969364,-0.00677733 -0.00416909,-0.00112956 -0.00942665,-0.0017046 -0.0157932,-0.0017046 -0.00794796,0 -0.0142529,0.000657196 -0.0188944,0.00197159 -0.00468252,0.00133493 -0.00821495,0.00392264 -0.0105973,0.00778366 -0.00238233,0.00386103 -0.00396371,0.00936504 -0.00476467,0.0165326 -0.00078042,0.007147 -0.00119117,0.0167585 -0.00119117,0.0288139l0.0730103 0 -0.00568885 0.00564778zm0.0932602 0.0754338c-0.00872838,0 -0.0160191,-0.000903644 -0.0218928,-0.0026904 -0.00585315,-0.00178675 -0.0104535,-0.00451822 -0.0138422,-0.00819441 -0.00336813,-0.00365565 -0.00595584,-0.00842032 -0.00774259,-0.0142529 -0.00180729,-0.00585315 -0.00299846,-0.0128153 -0.0035735,-0.020907 -0.000616121,-0.00811226 -0.000883107,-0.0174362 -0.000883107,-0.0279719 0,-0.0118706 0.00039021,-0.0220982 0.00119117,-0.0306623 0.00078042,-0.00856408 0.00221804,-0.01567 0.00429231,-0.0213383 0.00209481,-0.00564778 0.00488789,-0.0101249 0.00833817,-0.0134109 0.00349135,-0.00330652 0.00794796,-0.00564778 0.0134109,-0.00706485 0.00548348,-0.00141708 0.0120965,-0.00211535 0.0198186,-0.00211535 0.00517542,0 0.0106794,0.000328598 0.0165531,0.000985794 0.00583261,0.000657196 0.0106794,0.00145815 0.0144378,0.00240287l0 0.0124251c-0.00396371,-0.000944719 -0.00848193,-0.00168406 -0.0135547,-0.00225911 -0.00507273,-0.000554509 -0.00979632,-0.000842032 -0.0141502,-0.000842032 -0.00755775,0 -0.0136163,0.000842032 -0.0181756,0.00254663 -0.00457983,0.00168406 -0.00809172,0.00470306 -0.0105767,0.00903644 -0.00248502,0.00433338 -0.00410747,0.0105562 -0.00490843,0.0186479 -0.000800957,0.00809172 -0.00119117,0.0184631 -0.00119117,0.031073 0,0.013185 0.00039021,0.023885 0.00119117,0.0320794 0.000800957,0.00819441 0.00242341,0.0144583 0.00490843,0.0187712 0.00248502,0.00433338 0.00605852,0.00727023 0.0107205,0.00876946 0.00468252,0.00149923 0.0107821,0.00225911 0.0183193,0.00225911 0.00499058,0 0.0100222,-0.000287523 0.0151977,-0.000842032 0.00515488,-0.000575046 0.00952934,-0.00141708 0.0131028,-0.00254663l0 0.0124251c-0.00396371,0.00112956 -0.00878999,0.0020332 -0.0144378,0.0026904 -0.00564778,0.000657196 -0.0111723,0.000985794 -0.0165531,0.000985794zm0.0941433 0c-0.00932396,0 -0.0170871,-0.00112956 -0.0232278,-0.00338867 -0.00616121,-0.00225911 -0.0106794,-0.00640766 -0.0135547,-0.0124251 -0.00289577,-0.00603799 -0.00431285,-0.0146021 -0.00431285,-0.0257128 0,-0.010741 0.00115009,-0.0191203 0.0034092,-0.0251583 0.00227965,-0.00601745 0.00612014,-0.0102481 0.0114804,-0.0127126 0.00536025,-0.00244395 0.012918,-0.00367619 0.0226322,-0.00367619 0.00238233,0 0.00538079,0 0.00895429,0 0.0035735,0 0.00739345,0.000102687 0.0114804,0.000287523 0.0040664,0.000184836 0.00807119,0.000328598 0.0120554,0.000431285 0.00396371,8.21495e-005 0.00774259,0.000225911 0.0113161,0.000431285l0 -0.0116036c0,-0.00977579 -0.000513434,-0.0175594 -0.00147869,-0.0232894 -0.00100633,-0.00575046 -0.00279308,-0.0100017 -0.00538079,-0.0127332 -0.00256717,-0.00273147 -0.00628443,-0.00445661 -0.0111723,-0.00521649 -0.00486736,-0.000759883 -0.0111723,-0.00112956 -0.0188944,-0.00112956 -0.00318329,0 -0.00696217,0.000143762 -0.0113366,0.000431285 -0.00437446,0.000266986 -0.00874892,0.000657196 -0.0131234,0.00112956 -0.00435392,0.000472359 -0.00852301,0.00106794 -0.0124867,0.00182783l0 -0.0124251c0.00634605,-0.00131439 0.0129385,-0.00225911 0.0198186,-0.00283416 0.00683894,-0.000554509 0.014027,-0.000842032 0.0215848,-0.000842032 0.00794796,0 0.0147048,0.000513434 0.0202498,0.00156084 0.00556563,0.00102687 0.0101249,0.00273147 0.0136984,0.00507273 0.0035735,0.0023618 0.00636658,0.0056067 0.00833817,0.00975525 0.00199212,0.00414855 0.00338867,0.00932396 0.00418962,0.0155262 0.000800957,0.00622282 0.00119117,0.0135752 0.00119117,0.0220366l0 0.0923976 -0.0128153 0 -0.00119117 -0.0211946 -0.00147869 0c-0.00180729,0.00640766 -0.00457983,0.0113161 -0.00835871,0.0147048 -0.00377888,0.00338867 -0.00833817,0.00568885 -0.0136984,0.00692109 -0.00536025,0.0012117 -0.0113161,0.00182783 -0.017888,0.00182783zm0.00330652 -0.0127126c0.00575046,0 0.0106794,-0.000369673 0.0147458,-0.00112956 0.0040664,-0.000759883 0.00757829,-0.00221804 0.0105562,-0.00437446 0.00297792,-0.00217696 0.00515488,-0.00531918 0.00657196,-0.00946773 0.00176621,-0.00470306 0.00308061,-0.00969364 0.00386103,-0.0149717 0.000800957,-0.0052781 0.00119117,-0.0113161 0.00119117,-0.0180934l0 -0.0107205 -0.0399246 0c-0.007147,0 -0.0126099,0.00069827 -0.0163888,0.00211535 -0.00377888,0.00139654 -0.00634605,0.0042307 -0.00774259,0.0084614 -0.00139654,0.00425124 -0.00209481,0.0105151 -0.00209481,0.0187917 0,0.00790689 0.000759883,0.0139859 0.00225911,0.0182372 0.00145815,0.0042307 0.00435392,0.007147 0.00864623,0.00874892 0.00425124,0.00160191 0.0103714,0.00240287 0.0183193,0.00240287zm0.187095 0.0104535l-0.0548142 -0.194386 0.0169844 0 0.0470511 0.171508 0.00149923 0 0.0473797 -0.171508 0.0160808 0 -0.0545267 0.194386 -0.0196543 0zm0.0980249 -0.189868l0 -0.0200445 0.0166763 0 0 0.0200445 -0.0166763 0zm0.000575046 0.189868l0 -0.14409 0.0155057 0 0 0.14409 -0.0155057 0zm0.0560054 0l0 -0.14409 0.0131234 0 0.00119117 0.0279719 0.00119117 0c0.00178675,-0.00772205 0.00447715,-0.0138011 0.00805065,-0.0182166 0.0035735,-0.00443607 0.00805065,-0.00753721 0.0133904,-0.00932396 0.00538079,-0.00180729 0.0117268,-0.0026904 0.0190792,-0.0026904l0 0.0146842c-0.0107205,0 -0.0190792,0.00225911 -0.0250351,0.00677733 -0.00595584,0.00453876 -0.0100222,0.0112545 -0.0121992,0.0202088 -0.0021975,0.00895429 -0.00328598,0.0201061 -0.00328598,0.0334759l0 0.0712031 -0.0155057 0zm0.0908779 0l0 -0.131378 -0.0226322 0 0 -0.0127126 0.0226322 0 0 -0.0418141 0.0155057 0 0 0.0418141 0.0265137 0 0 0.0127126 -0.0265137 0 0 0.131378 -0.0155057 0zm0.109361 0.00225911c-0.00893375,0 -0.0161424,-0.00102687 -0.0216053,-0.00310114 -0.00546294,-0.00207427 -0.00963203,-0.0052781 -0.0125073,-0.00961149 -0.00289577,-0.00433338 -0.00482628,-0.0100222 -0.00581208,-0.0170871 -0.00100633,-0.00706485 -0.00149923,-0.0155879 -0.00149923,-0.025569l0 -0.0909805 0.0155057 0 0 0.0870168c0,0.010166 0.00039021,0.0183193 0.00119117,0.0244395 0.00078042,0.00612014 0.00227965,0.0107821 0.00447715,0.0139859 0.00217696,0.00320383 0.00529864,0.0052781 0.00936504,0.00622282 0.0040664,0.000944719 0.00940611,0.00139654 0.015937,0.00139654 0.00833817,0 0.0148691,-0.00131439 0.0195105,-0.00394317 0.00468252,-0.00264932 0.00803011,-0.00651035 0.0100017,-0.0115831 0.00199212,-0.00509327 0.00322437,-0.0112545 0.00371726,-0.0185042 0.000492897,-0.00724969 0.000759883,-0.0153003 0.000759883,-0.0241519l0 -0.0748792 0.0154852 0 0 0.14409 -0.0131028 0 -0.000903644 -0.0211946 -0.00147869 0c-0.00160191,0.00490843 -0.00394317,0.00913913 -0.00702378,0.0127126 -0.00308061,0.00359404 -0.00718808,0.0062639 -0.0123635,0.00805065 -0.00515488,0.00178675 -0.0117063,0.0026904 -0.0196543,0.0026904zm0.127517 0c-0.0093445,0 -0.0170871,-0.00112956 -0.0232483,-0.00338867 -0.00614067,-0.00225911 -0.0106794,-0.00640766 -0.0135547,-0.0124251 -0.00287523,-0.00603799 -0.00431285,-0.0146021 -0.00431285,-0.0257128 0,-0.010741 0.00115009,-0.0191203 0.00342974,-0.0251583 0.00225911,-0.00601745 0.0060996,-0.0102481 0.0114804,-0.0127126 0.00533972,-0.00244395 0.0128975,-0.00367619 0.0226322,-0.00367619 0.00238233,0 0.00536025,0 0.00893375,0 0.0035735,0 0.00739345,0.000102687 0.0114804,0.000287523 0.0040664,0.000184836 0.00807119,0.000328598 0.0120554,0.000431285 0.00396371,8.21495e-005 0.00774259,0.000225911 0.0113161,0.000431285l0 -0.0116036c0,-0.00977579 -0.000492897,-0.0175594 -0.00147869,-0.0232894 -0.000985794,-0.00575046 -0.00279308,-0.0100017 -0.00536025,-0.0127332 -0.00258771,-0.00273147 -0.00630497,-0.00445661 -0.0111723,-0.00521649 -0.00488789,-0.000759883 -0.0111929,-0.00112956 -0.0189149,-0.00112956 -0.00318329,0 -0.00696217,0.000143762 -0.0113366,0.000431285 -0.00437446,0.000266986 -0.00874892,0.000657196 -0.0131234,0.00112956 -0.00435392,0.000472359 -0.00852301,0.00106794 -0.0124867,0.00182783l0 -0.0124251c0.00634605,-0.00131439 0.0129591,-0.00225911 0.0198186,-0.00283416 0.00683894,-0.000554509 0.014027,-0.000842032 0.0215848,-0.000842032 0.00794796,0 0.0147048,0.000513434 0.0202498,0.00156084 0.00556563,0.00102687 0.0101455,0.00273147 0.013719,0.00507273 0.0035735,0.0023618 0.00636658,0.0056067 0.00833817,0.00975525 0.00199212,0.00414855 0.00336813,0.00932396 0.00416909,0.0155262 0.000800957,0.00622282 0.00119117,0.0135752 0.00119117,0.0220366l0 0.0923976 -0.0128153 0 -0.00119117 -0.0211946 -0.00147869 0c-0.00178675,0.00640766 -0.0045593,0.0113161 -0.00835871,0.0147048 -0.00375834,0.00338867 -0.00833817,0.00568885 -0.0136779,0.00692109 -0.00538079,0.0012117 -0.0113366,0.00182783 -0.017888,0.00182783zm0.00328598 -0.0127126c0.00575046,0 0.0106794,-0.000369673 0.0147458,-0.00112956 0.0040664,-0.000759883 0.00757829,-0.00221804 0.0105767,-0.00437446 0.00295738,-0.00217696 0.00515488,-0.00531918 0.00655142,-0.00946773 0.00178675,-0.00470306 0.00308061,-0.00969364 0.00386103,-0.0149717 0.000800957,-0.0052781 0.00119117,-0.0113161 0.00119117,-0.0180934l0 -0.0107205 -0.0399246 0c-0.007147,0 -0.0125894,0.00069827 -0.0163888,0.00211535 -0.00375834,0.00139654 -0.00634605,0.0042307 -0.00772205,0.0084614 -0.00141708,0.00425124 -0.00211535,0.0105151 -0.00211535,0.0187917 0,0.00790689 0.000759883,0.0139859 0.00225911,0.0182372 0.00147869,0.0042307 0.00435392,0.007147 0.00864623,0.00874892 0.00427177,0.00160191 0.0103714,0.00240287 0.0183193,0.00240287zm0.0920485 0.0104535l0 -0.209912 0.0155057 0 0 0.209912 -0.0155057 0z"/>
  <g id="_223626264">
   <polygon id="_223628808" class="fil1" points="1.99948,0.559705 1.99948,0.0127332 2.16295,0.0127332 2.30548,0.373677 2.31052,0.373677 2.4522,0.0127332 2.56119,0.0127332 2.3452,0.559705 2.26441,0.559705 2.11518,0.178901 2.11097,0.178901 2.11097,0.559705 "/>
   <polygon id="_223629096" class="fil2" points="1.64533,0.787649 1.64533,0.240677 2.03938,0.240677 2.03938,0.33289 1.76439,0.33289 1.76439,0.465664 1.99997,0.465664 1.99997,0.557877 1.76439,0.557877 1.76439,0.695436 2.03938,0.695436 2.03938,0.787649 "/>
   <polygon id="_223629240" class="fil1" points="1.41685,0.546972 1.41685,0 1.79412,0 1.79412,0.0922128 1.53591,0.0922128 1.53591,0.240102 1.76311,0.240102 1.76311,0.332315 1.53591,0.332315 1.53591,0.546972 "/>
   <polygon id="_223629192" class="fil2" points="3.06237,0.21632 3.07019,0.21632 3.11603,0.21632 3.11603,0.763292 3.00117,0.763292 3.00117,0.386349 3.00117,0.382488 2.99698,0.382488 2.84775,0.763292 2.8464,0.763292 "/>
   <polygon id="_223629528" class="fil1" points="2.50081,0.763292 2.50081,0.21632 2.66431,0.21632 2.80682,0.577264 2.81185,0.577264 2.95354,0.21632 3.06253,0.21632 2.84656,0.763292 2.76575,0.763292 2.61652,0.382488 2.61231,0.382488 2.61231,0.763292 "/>
   <polygon id="_223629768" class="fil2" points="2.56119,0.0127332 2.56902,0.0127332 2.61484,0.0127332 2.61484,0.559705 2.49999,0.559705 2.49999,0.182741 2.49999,0.178901 2.4958,0.178901 2.34656,0.559705 2.3452,0.559705 "/>
  </g>
  <g id="_223626120">
   <g>
    <polygon id="_223626072" class="fil3" points="1.12512,0.663542 0.113818,0.663542 0.113818,0.0688002 1.12512,0.0688002 "/>
    <path id="_223626600" class="fil4" d="M0.740536 0.679232c0,0.0060996 -0.00519595,0.0110286 -0.0116447,0.0110286l-0.226034 0c-0.0064282,0 -0.0116447,-0.00492897 -0.0116447,-0.0110286l-0.394605 0.000102687 -0.0873454 0c-0.0051138,0 -0.00926235,0.00392264 -0.00926235,0.00876946l0 0.0165942c0,0.024193 0.0925003,0.0268013 0.118008,0.0268013l0.762142 0 -0.0370494 -0.0522471 -0.102564 -2.05374e-005z"/>
    <path id="_223625976" class="fil5" d="M1.22249 0.679335l-0.0873249 0 -0.292062 -8.21495e-005 0.0370494 0.0522471 0.233592 0c0.0255279,0 0.118008,-0.00260825 0.118008,-0.0268013l0 -0.0165942c0,-0.00484682 -0.00414855,-0.00876946 -0.00926235,-0.00876946z"/>
    <path id="_223626168" class="fil4" d="M0.1483 0.636474l0 -0.534136 0.285695 0 -0.0330446 -0.0465582 -0.272777 0c-0.0174362,0 -0.0315659,0.0133904 -0.0315659,0.0299229l0 0.58743 0.742138 0 -0.0260003 -0.0366592 -0.664445 0z"/>
    <path id="_223626792" class="fil5" d="M0.615875 0.0843059c-0.00310114,0 -0.00562724,-0.00238233 -0.00562724,-0.00533972 0,-0.00293684 0.0025261,-0.00533972 0.00562724,-0.00533972 0.00310114,0 0.00562724,0.00240287 0.00562724,0.00533972 0,0.00295738 -0.0025261,0.00533972 -0.00562724,0.00533972zm0.519287 0.00139654c0,-0.0165326 -0.0141502,-0.0299229 -0.0315659,-0.0299229l-0.702645 0 0.0330446 0.0465582 0.649453 0 0 0.534136 -0.270703 0 0.0260003 0.0366592 0.296416 0 0 -0.58743z"/>
   </g>
   <g>
    <path id="_223626984" class="fil6" d="M0.612445 0.35238l0.000410747 -0.000800957c0.0465582,-0.0911859 0.146041,-0.207345 0.147048,-0.208516l0.00739345 -0.00860516 0 0.388382 -0.00529864 -0.00141708c-0.000123224,-4.10747e-005 -0.0132466,-0.00347082 -0.0317302,-0.00347082 -0.0346671,0 -0.0818619,0.011542 -0.109916,0.0665l-0.00790689 0.0155057 0 -0.247578z"/>
    <path id="_223626720" class="fil3" d="M0.771466 0.123347l-0.0148074 0.0172309c-0.00100633,0.00115009 -0.100797,0.117679 -0.147561,0.209276l-0.000821495 0.00162245 0 0.00180729 0 0.229443 0 0.0344617 0.0158343 -0.0310114c0.0271093,-0.0531302 0.0727023,-0.0642614 0.106158,-0.0642614 0.0178264,0 0.0304775,0.00328598 0.0306007,0.00330652l0.0105767 0.00281362 2.05374e-005 -0.0104124 0 -0.00131439 0 -0.370741 0 -0.0222214zm-0.00833817 0.0222214l0 0.370741 0 0.00131439c0,0 -0.0134931,-0.00361458 -0.0328598,-0.00361458 -0.0333116,0 -0.0840184,0.0106589 -0.113654,0.068718l0 -0.229443c0.0468663,-0.0918226 0.146514,-0.207715 0.146514,-0.207715z"/>
    <path id="_223626672" class="fil7" d="M0.612445 0.35238l0.000410747 -0.000800957c0.035201,-0.068985 0.183809,-0.171549 0.190114,-0.175882l0.00720862 -0.00494951 -0.000595584 0.00839978c-0.000246448,0.00334759 -0.0234947,0.333178 -0.0237001,0.336957l-0.000205374 0.00375834 -0.00396371 4.10747e-005c-0.00127332,0 -0.127742,0.000924182 -0.161362,0.0667464l-0.00790689 0.0155057 0 -0.249775z"/>
    <path id="_223627080" class="fil8" d="M0.814923 0.162615l-0.0143967 0.00987847c-0.00634605,0.00435392 -0.155755,0.107493 -0.191429,0.177361l-0.000821495 0.00162245 0 0.00180729 0 0.231641 0 0.0344822 0.0158343 -0.031032c0.032449,-0.0635837 0.156372,-0.0645284 0.157624,-0.0645284l0.00831763 -2.05374e-005 0 -0.00766044c0.000595584,-0.0093445 0.0234537,-0.333445 0.0236796,-0.336751l0.00119117 -0.0167996zm-0.0095088 0.0162861c0,0 -0.0237001,0.336053 -0.0237001,0.337039 0,0 -0.12996,0.000123224 -0.1651,0.068985l0 -0.231641c0.03516,-0.0688618 0.1888,-0.174383 0.1888,-0.174383z"/>
    <path id="_223627272" class="fil9" d="M0.612445 0.35238l0.000410747 -0.000800957c0.0238028,-0.0466198 0.224515,-0.138997 0.233058,-0.14292l0.00708539 -0.0032449 -0.00115009 0.00739345c-0.000472359,0.00295738 -0.0459832,0.292247 -0.0473797,0.301714l0 0.00306007 -0.00342974 0.000575046c-0.00158138,0.000266986 -0.158446,0.0271093 -0.180688,0.0706896l-0.00790689 0.0155057 0 -0.251973z"/>
    <path id="_223627344" class="fil3" d="M0.858298 0.198596l-0.0142119 0.00651035c-0.0215232,0.00985794 -0.21098,0.0977168 -0.234989,0.144747l-0.000821495 0.00162245 0 0.00180729 0 0.233838 0 0.0344617 0.0158343 -0.0310114c0.0177032,-0.0346671 0.134232,-0.0612219 0.177648,-0.0685332l0.00688002 -0.00115009 0 -0.0060996c0.00164299,-0.0108437 0.0314838,-0.200691 0.0473181,-0.301406l0.00234126 -0.0147869zm-0.0105767 0.0136368c0,0 -0.0474208,0.301365 -0.0474208,0.302023 0,0 -0.160253,0.026945 -0.183686,0.0728666l0 -0.233838c0.0234331,-0.045901 0.231107,-0.141051 0.231107,-0.141051z"/>
    <path id="_223627536" class="fil10" d="M0.612445 0.35238l0.000410747 -0.000800957c0.012117,-0.0237617 0.248851,-0.101023 0.275817,-0.109772l0.00727023 -0.00234126 -0.00188944 0.00706485c-0.00069827,0.00258771 -0.0679376,0.254787 -0.0709771,0.266513l0 0.00248502 -0.00297792 0.000842032c-0.0730103,0.020599 -0.191778,0.059086 -0.199746,0.0746739l-0.00790689 0.0155057 0 -0.25417z"/>
    <path id="_223627608" class="fil3" d="M0.901857 0.233366l-0.0145405 0.00470306c-0.000657196,0.000205374 -0.0663152,0.0215232 -0.132569,0.045367 -0.136882,0.0492281 -0.142796,0.0608317 -0.145651,0.0664178l-0.000821495 0.00162245 0 0.00180729 0 0.236036 0 0.0344822 0.0158343 -0.031032c0.00112956,-0.00195105 0.0113366,-0.0132877 0.101475,-0.0431901 0.0481191,-0.0159781 0.0952112,-0.0292863 0.0956836,-0.02943l0.00597637 -0.00166353 0 -0.00494951c0.00347082,-0.0133288 0.0474002,-0.178121 0.0708539,-0.266041l0.00375834 -0.0141297zm-0.0118501 0.0121787c0,0 -0.0711004,0.266698 -0.0711004,0.267047 0,0 -0.190587,0.0537668 -0.202293,0.0767276l0 -0.236036c0.0117063,-0.0229402 0.273393,-0.107739 0.273393,-0.107739z"/>
    <polygon id="_223628040" class="fil5" points="0.612445,0.350203 0.939092,0.273209 0.840718,0.513968 0.612445,0.597268 "/>
    <path id="_223628136" class="fil3" d="M0.94589 0.26754l-0.0155879 0.00367619 -0.3157 0.0744069 -0.00632551 0.00149923 0 0.00616121 0 0.238233 0 0.0115009 0.0113161 -0.00412801 0.2209 -0.0806092 0.00342974 -0.00125278 0.00133493 -0.00326544 0.094821 -0.232011 0.00581208 -0.0142119zm-0.0135752 0.0113366l-0.094821 0.232031 -0.220879 0.0806092 0 -0.238233 0.3157 -0.0744069z"/>
    <path id="_223627752" class="fil6" d="M0.611418 0.584452c-0.028054,-0.054958 -0.0752695,-0.0665 -0.109916,-0.0665 -0.0185042,0 -0.031607,0.00342974 -0.0317302,0.00347082l-0.00529864 0.00141708 0 -0.388382 0.00739345 0.00860516c0.00100633,0.00117063 0.100489,0.11733 0.147048,0.208516l0.000410747 0.000800957 0 0.247578 -0.00790689 -0.0155057z"/>
    <path id="_223627560" class="fil3" d="M0.460304 0.123347l0 0.0222214 0 0.370741 0 0.00131439 0 0.0104535 0.0105973 -0.00285469c0.000123224,-2.05374e-005 0.0127537,-0.00330652 0.0306007,-0.00330652 0.0334554,0 0.0790483,0.0111518 0.106158,0.0642614l0.0158343 0.031032 0 -0.0344822 0 -0.229443 0 -0.00180729 -0.000821495 -0.00162245c-0.0467636,-0.0915967 -0.146575,-0.208126 -0.147561,-0.209276l-0.0148074 -0.0172309zm0.00833817 0.0222214c0,0 0.0996473,0.115892 0.146514,0.207715l0 0.229443c-0.0296354,-0.0580591 -0.0803422,-0.068718 -0.113654,-0.068718 -0.0193667,0 -0.0328598,0.00361458 -0.0328598,0.00361458l0 -0.00131439 0 -0.370741z"/>
    <path id="_223628112" class="fil7" d="M0.611418 0.58665c-0.0336402,-0.0658839 -0.160089,-0.0667464 -0.161362,-0.0667464l-0.00416909 -2.05374e-005 0 -0.00394317c-0.000205374,-0.00361458 -0.0234742,-0.333445 -0.0237001,-0.336792l-0.000595584 -0.00839978 0.00720862 0.00494951c0.00630497,0.00433338 0.154913,0.106897 0.190114,0.175882l0.000410747 0.000800957 0 0.249775 -0.00790689 -0.0155057z"/>
    <path id="_223627872" class="fil3" d="M0.416847 0.162615l0.00119117 0.0167996c0.000225911,0.00330652 0.023084,0.327366 0.0236796,0.336751l0 0.00766044 0.00831763 2.05374e-005c0.00125278,0 0.125175,0.000944719 0.157624,0.0645284l0.0158343 0.031032 0 -0.0344822 0 -0.231641 0 -0.00180729 -0.000821495 -0.00162245c-0.0356734,-0.0698681 -0.185083,-0.173007 -0.191429,-0.177361l-0.0143967 -0.00987847zm0.0095088 0.0162861c0,0 0.15364,0.105521 0.1888,0.174383l0 0.231641c-0.03516,-0.0688618 -0.1651,-0.068985 -0.1651,-0.068985 0,-0.000985794 -0.0237001,-0.337039 -0.0237001,-0.337039z"/>
    <path id="_223628208" class="fil9" d="M0.611418 0.588847c-0.0222625,-0.0436008 -0.179106,-0.0704226 -0.180688,-0.0706896l-0.00342974 -0.000575046 0 -0.00306007c-0.00139654,-0.00946773 -0.0469073,-0.298757 -0.0473797,-0.301714l-0.00115009 -0.00739345 0.00708539 0.0032449c0.00854354,0.00392264 0.209255,0.0962997 0.233058,0.14292l0.000410747 0.000800957 0 0.251973 -0.00790689 -0.0155057z"/>
    <path id="_223628592" class="fil3" d="M0.373472 0.198596l0.00234126 0.0147869c0.0158343,0.100715 0.0456751,0.290542 0.0473181,0.301406l0 0.0060996 0.00688002 0.00115009c0.0433955,0.0073113 0.159945,0.0338661 0.177648,0.0685332l0.0158343 0.0310114 0 -0.0344617 0 -0.233838 0 -0.00180729 -0.000821495 -0.00162245c-0.0240082,-0.0470306 -0.213465,-0.134889 -0.234989,-0.144747l-0.0142119 -0.00651035zm0.0105767 0.0136368c0,0 0.207674,0.0951496 0.231107,0.141051l0 0.233838c-0.0234331,-0.0459216 -0.183686,-0.0728666 -0.183686,-0.0728666 0,-0.000657196 -0.0474208,-0.302023 -0.0474208,-0.302023z"/>
    <path id="_223628496" class="fil10" d="M0.611418 0.591045c-0.0079685,-0.0155879 -0.126736,-0.0540749 -0.199746,-0.0746739l-0.00297792 -0.000842032 0 -0.00248502c-0.00303953,-0.0117268 -0.0702994,-0.263926 -0.0709771,-0.266513l-0.00188944 -0.00706485 0.00727023 0.00234126c0.0269656,0.00874892 0.263679,0.0860105 0.275817,0.109772l0.000410747 0.000800957 0 0.25417 -0.00790689 -0.0155057z"/>
    <path id="_223628832" class="fil3" d="M0.329912 0.233366l0.00375834 0.0141297c0.0234537,0.0879205 0.0673626,0.252712 0.0708539,0.266041l0 0.00494951 0.00595584 0.00166353c0.000472359,0.000143762 0.0476262,0.0134725 0.0957657,0.0294506 0.0900769,0.0298819 0.100284,0.0412185 0.101414,0.0431901l0.0158548 0.0310114 -2.05374e-005 -0.0344822 0 -0.236036 0 -0.00180729 -0.000821495 -0.00162245c-0.00285469,-0.00558616 -0.00876946,-0.0171898 -0.145651,-0.0664178 -0.0662535,-0.0238439 -0.131912,-0.0451617 -0.132569,-0.045367l-0.0145405 -0.00470306zm0.0118501 0.0121787c0,0 0.261687,0.0847988 0.273393,0.107739l0 0.236036c-0.0117063,-0.0229608 -0.202293,-0.0767276 -0.202293,-0.0767276 0,-0.000349135 -0.0711004,-0.267047 -0.0711004,-0.267047z"/>
    <polygon id="_223628736" class="fil4" points="0.391052,0.513968 0.292678,0.273209 0.619325,0.350203 0.619325,0.597268 "/>
    <path id="_223628784" class="fil3" d="M0.28588 0.26754l0.00581208 0.0142119 0.0948005 0.232011 0.00133493 0.00326544 0.00345028 0.00125278 0.220879 0.0806092 0.0113366 0.00412801 0 -0.0115009 0 -0.238233 0 -0.00616121 -0.00632551 -0.00149923 -0.3157 -0.0744069 -0.0155879 -0.00367619zm0.0135752 0.0113366l0.3157 0.0744069 0 0.238233 -0.220879 -0.0806092 -0.094821 -0.232031z"/>
   </g>
  </g>
 </g>
</svg>
